<svg id="Layer_1" data-name="Layer 1" xmlns="http://www.w3.org/2000/svg" xmlns:xlink="http://www.w3.org/1999/xlink" viewBox="0 0 4500 2500"><defs><style>.cls-1{fill:none;}.cls-2{fill:#aed3f0;}.cls-3{fill:#c3dcf3;}.cls-11,.cls-12,.cls-14,.cls-16,.cls-17,.cls-18,.cls-19,.cls-20,.cls-21,.cls-22,.cls-23,.cls-24,.cls-26,.cls-27,.cls-28,.cls-3,.cls-30,.cls-31,.cls-33,.cls-34,.cls-35,.cls-36,.cls-37,.cls-39,.cls-42,.cls-44,.cls-5,.cls-6,.cls-7,.cls-8,.cls-9{fill-rule:evenodd;}.cls-4{clip-path:url(#clip-path);}.cls-5{fill:url(#linear-gradient);}.cls-6{fill:url(#linear-gradient-2);}.cls-7{fill:#c2175b;}.cls-8{fill:#ec6198;}.cls-9{fill:url(#linear-gradient-3);}.cls-10{fill:url(#linear-gradient-4);}.cls-11,.cls-15{fill:#f291b7;}.cls-12{fill:#f6b8d1;}.cls-13{fill:#643246;}.cls-14{fill:#f18cb4;}.cls-16{fill:url(#linear-gradient-5);}.cls-17{fill:url(#linear-gradient-6);}.cls-18{fill:#378c7f;}.cls-19{fill:url(#linear-gradient-7);}.cls-20{fill:#98d4cb;}.cls-21{fill-opacity:0.34;}.cls-22{fill:#7eccc1;}.cls-23{fill:#44ae9e;}.cls-24{fill:url(#linear-gradient-8);}.cls-25{fill:url(#linear-gradient-9);}.cls-26{fill-opacity:0.16;}.cls-27,.cls-32{fill:#337b70;}.cls-28{fill:#c0e5df;}.cls-29{fill:#307369;}.cls-30{fill:#7ac8bc;}.cls-31{fill:url(#linear-gradient-10);}.cls-33{fill:url(#linear-gradient-11);}.cls-34{fill:url(#linear-gradient-12);}.cls-35,.cls-41{fill:#bb9e28;}.cls-36{fill:#f0dc89;}.cls-37{fill:#edd573;}.cls-38{fill:url(#linear-gradient-13);}.cls-39{fill:#f9f0cd;}.cls-40{fill:#6e6025;}.cls-42,.cls-45{fill:#deedf9;}.cls-43{fill:#134f7b;}.cls-44{fill:#4198dc;}.cls-46{fill:#124f7b;}</style><clipPath id="clip-path"><rect class="cls-1" width="4499.99" height="2500"/></clipPath><linearGradient id="linear-gradient" x1="1290.25" y1="1790.65" x2="1291.44" y2="1790.65" gradientTransform="matrix(-179.95, -2410.46, -2410.46, 179.95, 4549500.31, 2790531.11)" gradientUnits="userSpaceOnUse"><stop offset="0" stop-opacity="0"/><stop offset="1"/></linearGradient><linearGradient id="linear-gradient-2" x1="1290.38" y1="1790.61" x2="1291.56" y2="1790.61" gradientTransform="matrix(-437.96, -1988.93, -1988.93, 437.96, 4127859.27, 1784855.02)" xlink:href="#linear-gradient"/><linearGradient id="linear-gradient-3" x1="1290.75" y1="1791.12" x2="1291.93" y2="1791.31" gradientTransform="matrix(76.35, -1061.46, -1011.02, 79.51, 1713688.42, 1229277.64)" gradientUnits="userSpaceOnUse"><stop offset="0" stop-color="#fff" stop-opacity="0"/><stop offset="1" stop-color="#fff"/></linearGradient><linearGradient id="linear-gradient-4" x1="1290.5" y1="1795.09" x2="1291.69" y2="1795.19" gradientTransform="matrix(293.41, -164.73, -161.66, -243.81, -87848.67, 651980.46)" xlink:href="#linear-gradient-3"/><linearGradient id="linear-gradient-5" x1="1290.4" y1="1790.51" x2="1291.58" y2="1790.51" gradientTransform="matrix(-510.47, -1572.39, -1572.39, 510.47, 3478160.06, 1118138.26)" xlink:href="#linear-gradient"/><linearGradient id="linear-gradient-6" x1="1290.25" y1="1790.6" x2="1291.44" y2="1790.6" gradientTransform="matrix(-185.81, -1905.25, -1905.25, 185.81, 3654329.29, 2128976.75)" xlink:href="#linear-gradient"/><linearGradient id="linear-gradient-7" x1="1289.4" y1="1789.07" x2="1290.59" y2="1789.07" gradientTransform="matrix(-2.64, 1129.18, 1129.18, 2.64, -2012791.56, -1459079.16)" gradientUnits="userSpaceOnUse"><stop offset="0" stop-color="#378c7f"/><stop offset="1" stop-color="#10594d"/></linearGradient><linearGradient id="linear-gradient-8" x1="1290.63" y1="1790.5" x2="1291.81" y2="1790.5" gradientTransform="matrix(-787.23, -1348.88, -1348.88, 787.23, 3433900.85, 333747.93)" xlink:href="#linear-gradient-3"/><linearGradient id="linear-gradient-9" x1="1291.59" y1="1791.04" x2="1292.77" y2="1791.04" gradientTransform="matrix(409.81, -385.47, -385.47, -409.81, 164666.38, 1233921.98)" xlink:href="#linear-gradient-3"/><linearGradient id="linear-gradient-10" x1="1290.35" y1="1790.99" x2="1291.54" y2="1790.99" gradientTransform="matrix(292.7, -979.86, -979.86, -292.7, 1380677.57, 1790446.39)" xlink:href="#linear-gradient-3"/><linearGradient id="linear-gradient-11" x1="1290.73" y1="1790.96" x2="1291.92" y2="1791.17" gradientTransform="matrix(-59.71, -1194.46, -1047.72, 222.58, 1955992.68, 1144760.44)" xlink:href="#linear-gradient"/><linearGradient id="linear-gradient-12" x1="1290.72" y1="1790.98" x2="1291.91" y2="1791.19" gradientTransform="matrix(-59.71, -1194.46, -1047.72, 222.58, 1955992.68, 1144760.44)" xlink:href="#linear-gradient"/><linearGradient id="linear-gradient-13" x1="1292.53" y1="1792.19" x2="1293.72" y2="1792.41" gradientTransform="matrix(392.65, -171.17, -219.88, -329.61, -110873.41, 812745.23)" xlink:href="#linear-gradient-3"/></defs><g id="c75"><rect class="cls-2" width="4499.99" height="2500"/><path class="cls-3" d="M0,1887.84c57.7,26.52,124.43,45.91,203.47,53.82,210.9,21.06,400-110.16,595.73-162.5,621.37-166.18,1348.16-64.44,1946.64,139.72,335.44,114.41,612.88,384.55,916.09,581.12H0ZM4500,901.55c-238.87-49.32-495,18.51-795.07-134.77C3354.83,588,3291.86,249.3,3130,0H4500ZM1384.1,0C960.43,238.92,447.84,581,0,638.57V0Z"/><rect class="cls-1" width="4499.99" height="2500"/><g class="cls-4"><path class="cls-5" d="M-325.18,2132.82l-63.71,51.08a43.81,43.81,0,0,0-15.93,36.76c1.07,13.81,9.22,24.65,20.94,27.9,165.57,45.78,1699.39,363.39,1836.14,401.21,25.68,7.1,54.5-1.24,76.87-22.24,115.47-108.42,690.17-682.93,849.33-842.18a36.24,36.24,0,0,0,10.22-30.6c-1.7-10.83-8.75-18.91-18.32-21l-115-24.92L-35.45,1879Z"/><path class="cls-6" d="M2306.75,1724.13,124.46,2008l-63.71,51.08a41.48,41.48,0,0,0-7,7.27s1191.5,477.38,1378.88,531c38.62,11,82.16-1.7,115.58-33.82,138.56-133.22,488.59-480.71,637-628.3,42.31-42.06,68.24-67.88,68.24-67.88l54.61-133.06Z"/><path class="cls-7" d="M-193.43,1800.47c-14.5,28.75-31.85,66-26.75,70.33,19.32,16.48,77.6,32.68,127.22,46.21l150.43,131c19.34,16.85,43.72,29,71.74,35.79,210.23,50.77,1059.34,255.69,1326.05,320,50,12.07,115.31.81,163.71-38.94,174.46-143.29,532.64-422.24,699.89-558.82,11.92-9.73,86.09-124.22,86.5-136.22s-87.44-7-99.7-10c-230.5-56.06-973.72-152.29-1233.17-215.38-45.52-11.07-85.09-31-116.39-58.53-62.66-55.14-171.6-151-228.11-200.8-20.85-18.35-59.67-15.61-90.94,6.42-159,112-568.43,342.19-742.94,465.12-17,12-82.65,124.37-86.93,141.09C-193,1798.71-193.25,1799.59-193.43,1800.47Z"/><path class="cls-8" d="M123.73,1940.38c19.34,16.86,43.72,29,71.74,35.79,210.23,50.77,1059.34,255.69,1326,320.06,50,12.05,115.32.8,163.71-38.95,174.47-143.29,532.65-422.24,699.9-558.81,11.91-9.74,20.74-21.8,21.15-33.8s-6.91-21.25-19.16-24.23L1138.75,1336.85c-45.53-11.07-85.09-31-116.4-58.53l-228.11-200.8c-20.85-18.35-59.66-15.61-90.93,6.42L-93,1645c-17,12-29.25,28.46-33.52,45.18s-.19,32,11.21,41.95C-50,1789,68.77,1892.51,123.73,1940.38Z"/><path class="cls-9" d="M336,1342.72a399.56,399.56,0,0,0,42.16-23.17c82.75-53,159.87-118.64,246.87-162.91,59.1-30.07,132.5-42,149.87,29.57,18.4,75.84-78.85,250.09-45.48,273.89a16.49,16.49,0,0,0,17.79.44c45.87-27.6,226.28-190.47,275.85-134.74,5.57,6.27,13.46,13.09,13.62,23,.75,48.07-220.8,213.19-262.46,241.94a355.6,355.6,0,0,0-53.06,45.08c-1.88,1.94-27.58,21.43-24.12,25,14.16,14.59,78.58-41.81,89.86-51.18,56-46.59,203-173,266.68-184.61,50.34-9.18,89.77-8.84,129.43,20.07,14.93,10.88,23.74,28.87,40.32,37.78,35.16,18.89,76.07,30.62,115.6,39.46,53.43,12,108.56,14.44,162.88,22.61,25,3.77,48.18,13.27,73.58,15.94,41.72,4.41,82.94,3.9,123.9,12.21,64.2,13,122,43.37,181.23,67.86,59,24.39,120.63,43.47,179.74,67.38,70.94,28.68,149.58,74.45,231.05,65.88,35.19-28.14,67-53.75,93.82-75.68,9.52-7.78,17.06-17,19.93-26.55-.33-3.12-.66-6.13-.93-9q-.6-6.21-1.58-12.23c-3.28-5-8.58-8.58-15.43-10.25L1138.73,1336.85c-45.52-11.07-85.08-31-116.4-58.52-62.63-55.15-171.58-151-228.1-200.81-20.85-18.34-59.66-15.6-90.92,6.42Z"/><ellipse class="cls-10" cx="679.64" cy="1670.47" rx="155.36" ry="23.23" transform="translate(-861.91 734.52) rotate(-36.6)"/><path class="cls-11" d="M2400.87,1648.48c-2.69,9.77-10.38,19.28-20.12,27.23-167.25,136.58-525.42,415.53-699.88,558.83-48.41,39.74-113.77,51-163.73,38.94-266.68-64.38-1115.8-269.3-1326.05-320-28-6.77-52.38-18.93-71.74-35.81-54.94-47.85-173.74-151.35-239.06-208.27a36.49,36.49,0,0,1-8.34-10.43c-1.11,13.23,3.33,25,12.7,33.18l239.06,208.29c19.36,16.85,43.75,29,71.76,35.79,210.23,50.77,1059.35,255.69,1326.05,320,50,12.07,115.32.81,163.71-38.94C1859.7,2114,2217.87,1835,2385.13,1698.47c11.9-9.74,20.73-21.8,21.14-33.8A23.19,23.19,0,0,0,2400.87,1648.48Z"/><path class="cls-7" d="M874.36,1901.48c19.49-14.52,16.57-30.86-6.52-36.47s-57.62,1.62-77.11,16.13L674.09,1968c-19.5,14.53-16.57,30.86,6.5,36.47s57.63-1.61,77.13-16.13Zm198.81,48.35c19.49-14.52,16.57-30.86-6.49-36.47s-57.63,1.62-77.12,16.13l-116.64,86.89c-19.5,14.52-16.56,30.85,6.5,36.46s57.61-1.61,77.11-16.13ZM1272,1998.18c19.49-14.51,16.57-30.86-6.49-36.46s-57.63,1.61-77.12,16.13l-116.64,86.88c-19.49,14.52-16.58,30.85,6.5,36.46s57.62-1.6,77.11-16.13Zm198.84,48.36c19.48-14.52,16.57-30.86-6.5-36.47s-57.65,1.61-77.13,16.13l-116.65,86.88c-19.49,14.52-16.56,30.85,6.53,36.47s57.61-1.61,77.1-16.13ZM629.15,1874.89c6.94-5.17,5.62-11.06-2.95-13.14s-21.15.42-28.09,5.59l-85.72,63.85c-6.93,5.16-5.62,11,3,13.13s21.16-.42,28.09-5.58Zm187.28-139.51c6.94-5.16,5.62-11.05-2.95-13.13s-21.15.42-28.09,5.59l-85.72,63.85c-6.93,5.16-5.62,11,3,13.13s21.15-.42,28.09-5.59Zm329.43-36.13c19.49-14.52,16.57-30.86-6.52-36.47s-57.63,1.61-77.11,16.13l-116.64,86.88c-19.49,14.52-16.57,30.86,6.49,36.47s57.65-1.61,77.14-16.13Zm198.81,48.35c19.49-14.52,16.57-30.86-6.5-36.47s-57.62,1.62-77.11,16.13l-116.64,86.89c-19.49,14.51-16.57,30.85,6.5,36.46s57.62-1.61,77.11-16.13ZM1543.5,1796c19.49-14.51,16.57-30.86-6.49-36.47s-57.63,1.62-77.12,16.14l-116.64,86.88c-19.49,14.52-16.59,30.85,6.5,36.47s57.62-1.62,77.11-16.14Zm198.83,48.35c19.49-14.51,16.57-30.85-6.49-36.46s-57.65,1.61-77.14,16.13l-116.64,86.88c-19.49,14.52-16.57,30.86,6.52,36.47s57.62-1.62,77.11-16.13Zm-738.61-248.42c6.93-5.16,5.62-11.05-3-13.13s-21.16.42-28.09,5.58L887,1652.18c-6.94,5.17-5.62,11.06,2.95,13.14s21.15-.42,28.09-5.59ZM1417.36,1497c19.48-14.52,16.57-30.86-6.52-36.47s-57.63,1.61-77.11,16.13l-116.65,86.88c-19.48,14.52-16.56,30.86,6.5,36.47s57.65-1.61,77.13-16.13Zm198.81,48.35c19.48-14.52,16.57-30.86-6.5-36.47s-57.63,1.62-77.11,16.13l-116.64,86.89c-19.49,14.51-16.57,30.85,6.49,36.46s57.63-1.62,77.11-16.13ZM1815,1593.72c19.49-14.51,16.57-30.86-6.5-36.47s-57.62,1.62-77.11,16.14l-116.64,86.88c-19.49,14.52-16.59,30.85,6.5,36.47s57.62-1.62,77.11-16.14Zm198.83,48.35c19.49-14.51,16.57-30.85-6.49-36.46s-57.65,1.61-77.14,16.13l-116.64,86.88c-19.49,14.52-16.57,30.86,6.52,36.47s57.62-1.62,77.11-16.13ZM1191,1456.38c6.94-5.17,5.62-11.05-3-13.14s-21.15.42-28.09,5.59l-85.72,63.85c-6.94,5.17-5.62,11.06,3,13.14s21.15-.42,28.09-5.59Z"/><path class="cls-11" d="M871.06,1881.52c19.49-14.51,16.57-30.85-6.52-36.47s-57.62,1.62-77.11,16.14l-116.64,86.88c-19.5,14.52-16.57,30.85,6.5,36.46s57.63-1.6,77.13-16.12Zm198.81,48.35c19.49-14.51,16.57-30.85-6.49-36.46s-57.63,1.62-77.12,16.13l-116.64,86.88c-19.5,14.53-16.56,30.86,6.5,36.47s57.61-1.61,77.11-16.13Zm198.83,48.36c19.49-14.52,16.57-30.86-6.49-36.47s-57.63,1.62-77.11,16.13l-116.65,86.89c-19.49,14.52-16.58,30.85,6.5,36.46s57.62-1.61,77.11-16.13Zm198.84,48.35c19.48-14.51,16.57-30.86-6.5-36.47s-57.65,1.62-77.13,16.13l-116.64,86.89c-19.5,14.52-16.57,30.85,6.52,36.46s57.61-1.6,77.11-16.13ZM625.85,1854.93c6.94-5.17,5.62-11-3-13.13s-21.15.42-28.09,5.58l-85.72,63.85c-6.93,5.17-5.62,11.06,2.95,13.14s21.16-.42,28.09-5.59Zm187.28-139.5c6.94-5.17,5.62-11-3-13.14s-21.15.42-28.09,5.59l-85.72,63.85c-6.93,5.17-5.62,11.06,3,13.14s21.16-.42,28.09-5.59Zm329.43-36.14c19.49-14.51,16.57-30.85-6.52-36.47s-57.62,1.62-77.11,16.14l-116.64,86.88c-19.49,14.51-16.57,30.85,6.49,36.46s57.65-1.61,77.14-16.12Zm198.81,48.35c19.49-14.51,16.57-30.85-6.5-36.46s-57.62,1.61-77.11,16.13l-116.64,86.88c-19.49,14.52-16.57,30.86,6.5,36.47s57.62-1.62,77.11-16.13ZM1540.2,1776c19.49-14.52,16.57-30.86-6.49-36.47s-57.63,1.62-77.12,16.13L1340,1842.55c-19.49,14.51-16.59,30.85,6.5,36.46s57.62-1.61,77.11-16.13ZM1739,1824.35c19.49-14.51,16.57-30.86-6.49-36.47s-57.65,1.62-77.14,16.13l-116.64,86.89c-19.49,14.51-16.57,30.85,6.52,36.47s57.62-1.62,77.11-16.14Zm-738.61-248.42c6.93-5.17,5.62-11.06-2.95-13.14s-21.16.42-28.09,5.59l-85.72,63.85c-6.94,5.17-5.62,11,3,13.14s21.15-.42,28.09-5.59Zm413.64-98.87c19.48-14.51,16.57-30.85-6.52-36.47s-57.63,1.62-77.11,16.13l-116.65,86.89c-19.48,14.51-16.56,30.85,6.5,36.46s57.65-1.61,77.13-16.12Zm198.81,48.35c19.48-14.51,16.57-30.86-6.5-36.46s-57.62,1.61-77.11,16.13L1412.62,1592c-19.49,14.52-16.57,30.86,6.49,36.47s57.63-1.62,77.11-16.13Zm198.83,48.36c19.49-14.52,16.57-30.86-6.5-36.47s-57.62,1.62-77.11,16.13l-116.64,86.89c-19.49,14.51-16.59,30.85,6.5,36.46s57.62-1.62,77.11-16.13Zm198.83,48.35c19.49-14.52,16.57-30.86-6.49-36.47s-57.65,1.62-77.14,16.13l-116.64,86.89c-19.49,14.51-16.57,30.85,6.52,36.47s57.62-1.62,77.11-16.14ZM1187.7,1436.43c6.94-5.17,5.62-11.06-3-13.14s-21.15.42-28.09,5.59l-85.72,63.85c-6.94,5.17-5.62,11,3,13.13s21.15-.42,28.09-5.58Z"/><path class="cls-12" d="M986.44,1310.06,793.27,1135.18-29.82,1715.05l193.18,174.87Z"/><path class="cls-13" d="M238.35,1744.3q8.4-6.08,1.71-16.37t-24.27-26.11q-18.4-16.59-29.87-22.68t-19.87,0q-8.4,6.09-2.26,16t24.55,26.53q17.57,15.84,29.59,22.26T238.35,1744.3Zm-3.1-56.57q25.23,22.74,31.48,40.37T254.65,1759q-18.32,13.27-39.33,6.33t-46.23-29.68q-25.23-22.73-31.55-40.42t12-31Q167.87,1651,189,1658T235.25,1687.73Z"/><polygon class="cls-13" points="277.7 1704.16 297.75 1689.65 318.68 1708.52 298.64 1723.03 277.7 1704.16"/><path class="cls-13" d="M351.36,1662.47q8.4-6.09,1.7-16.36T328.8,1620q-18.41-16.6-29.88-22.68t-19.86,0q-8.42,6.07-2.26,16t24.54,26.53q17.58,15.84,29.59,22.26T351.36,1662.47Zm-3.11-56.57q25.23,22.74,31.48,40.37t-12.07,30.89q-18.33,13.27-39.34,6.33t-46.23-29.68q-25.23-22.72-31.55-40.42t12-31q18.33-13.26,39.41-6.26T348.25,1605.9Z"/><path class="cls-13" d="M426.72,1607.9q8.4-6.09,1.7-16.37t-24.26-26.11q-18.42-16.59-29.88-22.68t-19.87,0q-8.4,6.08-2.26,16t24.55,26.53q17.57,15.84,29.59,22.26T426.72,1607.9Zm-3.11-56.57q25.23,22.74,31.48,40.37T443,1622.59q-18.33,13.28-39.34,6.33t-46.23-29.68q-25.23-22.73-31.55-40.42t12-31q18.33-13.26,39.41-6.26T423.61,1551.33Z"/><path class="cls-13" d="M417.66,1522.64,404,1510.35q8.5-6.86,11.24-10.2a16,16,0,0,0,3.92-11.51,19.57,19.57,0,0,0-3.6-9.27,23.64,23.64,0,0,0-3.35-4.2l15.68-11.36,101.88,91.83-19.31,14-70.27-63.33Z"/><path class="cls-13" d="M578.17,1498.46q6.29-4.56,4.86-11.69t-9.42-14.36q-8.93-8-17.77-9.35t-14.8,3a12.46,12.46,0,0,0-5.44,9q-1,8.14,9.2,17.32,8.22,7.41,17.58,9.08T578.17,1498.46Zm-50.83-65a18.19,18.19,0,0,0-7.2-3.59,15.75,15.75,0,0,0-14,2.35q-9.19,6.66-2.14,19.37,3.92,7,14.93,18.19a19.53,19.53,0,0,1,1.68-11.71,26.83,26.83,0,0,1,8.55-9.51q12.76-9.24,30.14-6.86T591,1457q14.26,12.87,17.15,28.47t-14,27.83q-18.13,13.14-42.83,4.85-19.25-6.5-39.14-24.41a229.9,229.9,0,0,1-18-17.77q-11.35-12.91-15.23-24.16a32.53,32.53,0,0,1-1.12-18.48q2.14-8.86,11.41-15.58,13.37-9.68,28.58-8.87t28.29,11Z"/><path class="cls-13" d="M652.46,1444.43q6.48-4.7,6-11.09t-8-13.17q-7.8-7-15.58-8a19.3,19.3,0,0,0-14.13,3.66q-6.36,4.61-6,11t8.11,13.38q7.5,6.77,15.33,7.85A19.11,19.11,0,0,0,652.46,1444.43ZM593,1421.7q-11.87.6-19.68-3a52,52,0,0,1-12.8-8.15q-11.09-10-11.06-22.77t14.4-23.15q14.35-10.41,30.06-9a44.65,44.65,0,0,1,26.81,11.36,41.8,41.8,0,0,1,8.63,11.17q3.64,6.67.91,15.5a48.18,48.18,0,0,1,21.82,2.36,55.79,55.79,0,0,1,19.11,11.41q12.85,11.58,12.92,26.21t-16,26.28q-16.08,11.64-33.38,9.49a54,54,0,0,1-30.15-13.74q-8.58-7.72-11.86-16.66A22.46,22.46,0,0,1,593,1421.7Zm12.45-19.63q5.76-4.17,5.39-9.62c-.25-3.62-2.22-7.11-5.92-10.44q-6-5.44-12.59-6.24a16.9,16.9,0,0,0-12.31,3.37c-3.8,2.75-5.62,5.92-5.49,9.52s2.21,7.21,6.24,10.84a22.22,22.22,0,0,0,12.27,5.84A16.89,16.89,0,0,0,605.45,1402.07Z"/><path class="cls-13" d="M728.15,1389.62q8.4-6.09,1.71-16.37t-24.27-26.11q-18.4-16.59-29.87-22.68t-19.87,0q-8.42,6.07-2.27,16T678.13,1367q17.58,15.84,29.59,22.26T728.15,1389.62ZM725,1333.05q25.23,22.74,31.48,40.37t-12.07,30.89q-18.33,13.28-39.34,6.33T658.88,1381q-25.21-22.73-31.55-40.42t12-31q18.33-13.26,39.41-6.26T725,1333.05Z"/><path class="cls-13" d="M803.5,1335.05q8.41-6.09,1.71-16.37T781,1292.57q-18.41-16.59-29.87-22.68t-19.88,0q-8.4,6.08-2.26,16t24.55,26.53q17.57,15.84,29.59,22.26T803.5,1335.05Zm-3.1-56.57q25.23,22.74,31.48,40.37t-12.07,30.89q-18.33,13.27-39.34,6.33t-46.23-29.68Q709,1303.67,702.69,1286t12-31q18.33-13.26,39.41-6.26T800.4,1278.48Z"/><path class="cls-14" d="M-17.65,1726.06l801.53-564.68,181,163.86,21.55-15.19L793.26,1135.18-29.83,1715.05Z"/><ellipse class="cls-15" cx="627.32" cy="1192.91" rx="76.47" ry="24.7" transform="translate(-583.25 600.39) rotate(-36.18)"/><path class="cls-7" d="M249,1900.63l763.85-554.89s13.31-2.53,7.62,7.77-767,556.13-767,556.13S241.53,1913.12,249,1900.63Z"/><path class="cls-16" d="M4281.36,1996.08l157.36,229.27L4007.57,2783,3264,2651.27Z"/><path class="cls-17" d="M4344.22,1956.43,1647,2669.12,1536.9,2740a56.72,56.72,0,0,0-12.08,10.39l1319.79,451.78A214.87,214.87,0,0,0,3047.94,3167c305.87-243.15,1210.4-991.83,1210.4-991.83l88.83-202.42Z"/><path class="cls-18" d="M4472.7,1488.76s32.21,124.85,36.69,156.59c2.95,21.05-17,122.26-25.71,141.64-12.64,28.09-51.61,18.38-79.79,65.09-50.85,84.27-98.69,234.25-121.29,284.46a129.24,129.24,0,0,1-38.13,48.64l-1199.21,938.3a221.7,221.7,0,0,1-209.25,35c-277.4-96-982.31-328.45-1214-408.66-46-15.94-85.55-69.87-91.72-118.34-4.3-33.74-5.87-65.62-5.87-65.62Z"/><path class="cls-19" d="M4506.26,1685.21c-5.59,37.89-16.65,88.64-22.58,101.78-12.64,28.09-51.6,18.37-79.79,65.09-50.84,84.26-98.68,234.25-121.3,284.46a129,129,0,0,1-38.11,48.63l-623.76,488c-75.86,6.08-142.32,2.16-162.29-24.6-2.37-3.17,29.12-19.53,32.43-21.45,45.23-26.17,86.76-61,129.82-90.63,105.93-72.91,206.42-155.27,314.6-224.76,80.21-51.52,171.35-83.77,251.4-132.7C4392.89,2053,4198.22,1765.1,4506.26,1685.21Z"/><path class="cls-20" d="M2929.28,1130.3s68.1-37.22,114.27-59c16.51-7.78,34.41-12.07,52.08-7.53,164.27,42.34,1078.31,315.84,1345.27,393.48a46.61,46.61,0,0,1,20.4,77.15c-42.2,43.55-95.8,96.16-105.36,92.74C4339.76,1621.41,2929.28,1130.3,2929.28,1130.3Z"/><path class="cls-21" d="M4344.79,1429.32c29.57,8.61,56.11,16.31,78.88,22.93l-59.42,40.29-31.46-29.71Z"/><path class="cls-22" d="M2734.26,1606.89a72.4,72.4,0,0,1-15.58,16.9L1546.62,2544.5a41.59,41.59,0,0,0,12.65,72.17L2872.9,3048a111.6,111.6,0,0,0,103.78-18.3c226.67-178,1195.7-939.29,1195.7-939.29l.27.09s145.51-357.85,197.23-485.19c2.68-6.6-1.16-29.28-11.25-45.77-9.78-16-25.69-25.87-32.23-28-229.77-75.17-1002.7-281.23-1235.33-357.33a79.51,79.51,0,0,0-91,31.72C2929.29,1312.67,2768.38,1555.41,2734.26,1606.89Z"/><path class="cls-23" d="M2727.73,1589.74a72.44,72.44,0,0,1-15.59,16.9l-1172,920.72a41.58,41.58,0,0,0,12.65,72.16l1313.63,431.37a111.6,111.6,0,0,0,103.78-18.3c226.67-178.05,1195.7-939.28,1195.7-939.28l.27.08s118.07-288.54,177.46-429.48c5.46-12.92,25.62-53.1,16.54-78.31-13.49-37.54-61.21-43.81-74.48-48.16C4055.86,1442.27,3242,1204,3009.33,1127.84c-34-11.13-73.94-10.72-93.75,19.16C2844.84,1253.71,2761.85,1538.26,2727.73,1589.74Z"/><path class="cls-24" d="M2930,1146.53a54,54,0,0,0-21.41,18.86c-70.74,106.72-146.69,372.88-180.81,424.35a72,72,0,0,1-15.59,16.9L1592.89,2485.88,1567,2604.22l16.82,5.53c72.42-55.39,132.6-134.4,200.33-194.14,226.83-200.09,664.87-608.79,973.67-652,104.51-14.63,210.12,26.33,310.37,52.8,135.86,35.88,271.12,60.39,404.57,107.24,50.24,17.64,238.6,72.82,245.08,64,2.71-3.7-17.93-37.6-19.6-38.67-60.1-38.6-112.82-48.67-181.83-69.14-82.32-24.42-163.34-53.95-245.36-79.61-86.84-27.15-462.49-93.94-512.35-150-68.74-77.34,233.67-450.91,178.14-498.35Q2933.52,1149,2930,1146.53Z"/><ellipse class="cls-25" cx="3677.53" cy="1969.32" rx="37.57" ry="220.65" transform="matrix(0.32, -0.95, 0.95, 0.32, 643.52, 4832.41)"/><path class="cls-26" d="M2994.45,2845.52c8.28-6.44,6.47-14.41-4-17.82l-142.72-46.25c-10.51-3.41-25.77-1-34,5.46l-30,23.25c-8.28,6.42-6.46,14.39,4,17.8l142.72,46.27c10.52,3.41,25.77,1,34-5.46Zm-240.16-77.87c8.27-6.41,6.46-14.39-4.05-17.8l-142.72-46.25c-10.52-3.41-25.78-1-34.05,5.46l-30,23.25c-8.28,6.42-6.47,14.4,4.05,17.81l142.72,46.26c10.51,3.41,25.77,1,34.05-5.45Zm445.37-71.78c14.94-11.59,11.67-26-7.29-32.14l-257.52-83.46c-19-6.15-46.5-1.74-61.44,9.85l-54.13,42c-14.93,11.59-11.66,26,7.31,32.12l257.51,83.47c19,6.16,46.5,1.74,61.44-9.84Zm-433.33-140.46c14.94-11.59,11.67-26-7.3-32.14l-257.51-83.46c-19-6.15-46.5-1.75-61.44,9.84l-54.13,42c-14.94,11.59-11.66,26,7.31,32.14l257.51,83.46c19,6.16,46.5,1.73,61.44-9.84Zm627-9.69c14.94-11.57,11.67-26-7.31-32.12l-257.51-83.48c-19-6.15-46.49-1.73-61.43,9.85l-54.13,42c-14.94,11.6-11.67,26,7.31,32.14l257.51,83.46c19,6.16,46.5,1.75,61.44-9.84ZM2333,2414.94c14.94-11.57,11.66-26-7.31-32.12l-257.51-83.47c-19-6.16-46.5-1.74-61.43,9.84l-54.13,42c-14.94,11.59-11.66,26,7.31,32.14l257.51,83.46c19,6.15,46.5,1.74,61.43-9.85Zm627-9.68c14.94-11.58,11.66-26-7.31-32.12l-257.51-83.48c-19-6.14-46.5-1.73-61.44,9.84l-54.13,42c-14.93,11.57-11.66,26,7.31,32.12l257.51,83.48c19,6.13,46.5,1.73,61.44-9.87Zm627-9.69c14.93-11.58,11.65-26-7.31-32.12L3322.12,2280c-19-6.16-46.5-1.75-61.43,9.83l-54.14,42c-14.94,11.58-11.66,26,7.31,32.12l257.5,83.48c19,6.14,46.52,1.73,61.45-9.85Zm-1060.3-130.78c14.93-11.57,11.66-26-7.31-32.12l-257.51-83.47c-19-6.15-46.5-1.74-61.44,9.85l-54.13,42c-14.94,11.58-11.66,26,7.31,32.12l257.51,83.48c19,6.14,46.5,1.73,61.44-9.84Zm627-9.67c14.94-11.59,11.65-26-7.31-32.14l-257.52-83.46c-19-6.15-46.5-1.74-61.43,9.84l-54.13,42c-14.94,11.59-11.67,26,7.31,32.13l257.5,83.47c19,6.14,46.5,1.74,61.44-9.84Zm600.8,5.27c7.2-5.58,6.21-12.35-2.21-15.08l-190.27-61.67c-8.42-2.73-21.12-.41-28.32,5.18l-26.12,20.25c-7.22,5.59-6.21,12.34,2.21,15.07L3700,2285.81c8.42,2.75,21.11.42,28.32-5.17Zm-319.56-103.58c7.2-5.59,6.21-12.34-2.21-15.07l-190.27-61.68c-8.42-2.73-21.12-.41-28.32,5.18l-26.12,20.25c-7.2,5.59-6.21,12.34,2.21,15.08l190.27,61.67c8.42,2.73,21.12.41,28.32-5.18Zm-714.58-42.16c14.94-11.58,11.66-26-7.31-32.12l-257.51-83.47c-19-6.15-46.5-1.74-61.44,9.84l-54.13,42c-14.93,11.58-11.66,26,7.31,32.13l257.51,83.47c19,6.15,46.5,1.74,61.44-9.84Zm395-61.42c7.2-5.59,6.21-12.34-2.23-15.08l-190.25-61.67c-8.43-2.73-21.13-.41-28.33,5.18l-26.12,20.25c-7.21,5.59-6.21,12.34,2.21,15.07l190.26,61.68c8.44,2.73,21.14.41,28.34-5.18Zm-319.56-103.58c7.2-5.59,6.21-12.34-2.22-15.08l-190.26-61.67c-8.43-2.73-21.12-.41-28.33,5.18l-26.11,20.25c-7.21,5.59-6.22,12.34,2.21,15.07l190.26,61.67c8.43,2.74,21.13.42,28.33-5.17Z"/><path class="cls-27" d="M2993.2,2818.88c8.17-6.43,11.93-41.44,1.55-44.83l-146.43-19.23c-10.38-3.41-25.44-1-33.61,5.45l-30.36-1.73c-8.17,6.42-5.63,39.38,4.75,42.79L2930,2847.6c10.38,3.41,25.44,1,33.61-5.46ZM2756.13,2741c8.17-6.42,11.92-40.43,1.54-43.84L2611.26,2677c-10.38-3.41-25.44-1-33.61,5.45l-31-1.83c-8.17,6.42-5,39.48,5.4,42.89l140.88,46.27c10.38,3.41,25.44,1,33.61-5.46Zm439.62-71.78c14.75-11.59,18-50.57-.71-56.72l-260.68-58.88c-18.72-6.16-45.9-1.75-60.64,9.84l-54.91,19.73c-14.74,11.59-10,48.22,8.69,54.36l254.19,83.48c18.72,6.16,45.89,1.73,60.64-9.84ZM2768,2528.78c14.75-11.6,11.52-26-7.21-32.14l-254.18-83.46c-18.73-6.16-45.9-1.75-60.64,9.84l-57.72,22.29c-14.74,11.58-7.23,45.66,11.5,51.82L2654,2580.59c18.73,6.15,45.9,1.73,60.64-9.85Zm618.87-9.69c14.74-11.58,18.23-50.5-.51-56.64l-260.89-59c-18.72-6.16-45.89-1.73-60.64,9.84l-54,16.25c-14.75,11.57-10.92,51.7,7.81,57.86l254.19,83.46c18.72,6.15,45.89,1.75,60.64-9.85Zm-1046.6-130.78c14.74-11.58,17.91-49.57-.82-55.71l-260.58-59.89c-18.72-6.15-45.9-1.73-60.64,9.85l-56.5,19.11c-14.74,11.59-8.44,48.84,10.28,55l254.19,83.46c18.72,6.16,45.9,1.75,60.64-9.84Zm618.87-9.69c14.74-11.57,11.51-26-7.22-32.12L2697.76,2263c-18.73-6.13-45.9-1.73-60.64,9.85l-54,18.18c-14.75,11.6-11,49.77,7.74,55.92l254.18,83.48c18.73,6.14,45.9,1.73,60.65-9.86Zm618.87-9.68c14.74-11.58,17-55.1-1.69-61.26l-259.71-54.33c-18.72-6.15-45.89-1.74-60.64,9.83l-56.06,19.27c-14.74,11.58-8.88,48.7,9.84,54.84L3464,2420.76c18.73,6.14,45.91,1.74,60.65-9.84ZM2531.42,2238.16c14.75-11.58,17.91-50.55-.82-56.71L2270,2122.57c-18.72-6.15-45.9-1.74-60.64,9.84l-57.45,19.3c-14.75,11.58-7.49,48.64,11.23,54.8L2417.35,2290c18.72,6.13,45.9,1.73,60.64-9.85Zm618.87-9.67c14.75-11.59,18.95-49.88.21-56l-261.61-59.58c-18.72-6.15-45.9-1.74-60.64,9.85l-54.3,17.81c-14.74,11.59-10.64,50.14,8.08,56.28l254.18,83.48c18.73,6.14,45.9,1.73,60.64-9.84Zm593,5.26c7.11-5.58,10.49-39.17,2.18-41.89L3553.34,2157c-8.31-2.73-20.84-.41-28,5.17l-26.23-5.94c-7.12,5.59-5.69,38.54,2.63,41.26l187.81,61.68c8.31,2.74,20.84.42,28-5.18ZM3427.9,2130.18c7.11-5.59,10.7-38.36,2.39-41.09l-192.38-35.66c-8.31-2.73-20.84-.41-27.95,5.17l-26.76-4.47c-7.11,5.59-5.16,37.07,3.16,39.8l187.8,61.67c8.32,2.73,20.85.42,28-5.17ZM2722.55,2088c14.75-11.58,18.28-52-.45-58.16l-260.94-57.44c-18.73-6.15-45.9-1.74-60.65,9.85l-56.66,18.84c-14.75,11.58-8.28,49.11,10.45,55.26l254.18,83.47c18.73,6.15,45.9,1.73,60.64-9.85Zm389.94-61.42c7.11-5.59,10.49-39,2.16-41.7l-192.16-35.05c-8.32-2.73-20.85-.42-28,5.17l-27.38-4.56c-7.11,5.58-4.53,37.16,3.79,39.89l187.8,61.67c8.33,2.73,20.86.42,28-5.17ZM2797.06,1923c7.11-5.58,10.75-39.48,2.43-42.21l-192.42-34.53c-8.32-2.73-20.85-.42-28,5.17l-26.83-5.49c-7.12,5.58-5.08,38.09,3.24,40.82l187.8,61.67c8.33,2.73,20.86.41,28-5.17Z"/><path class="cls-20" d="M2994.5,2789.34c8.17-6.43,6.38-14.41-4-17.82l-140.87-46.25c-10.38-3.41-25.44-1-33.61,5.46L2786.4,2754c-8.17,6.41-6.38,14.39,4,17.8l140.88,46.26c10.38,3.41,25.44,1,33.61-5.45Zm-237.06-77.86c8.17-6.42,6.38-14.39-4-17.8l-140.88-46.25c-10.38-3.41-25.44-1-33.61,5.45l-29.61,23.26c-8.17,6.42-6.38,14.39,4,17.8l140.87,46.27c10.38,3.41,25.44,1,33.61-5.46Zm439.62-71.78c14.74-11.59,11.52-26-7.2-32.14l-254.19-83.46c-18.73-6.16-45.9-1.75-60.65,9.84l-53.43,42c-14.74,11.59-11.51,26,7.22,32.12L3083,2691.51c18.72,6.15,45.9,1.73,60.64-9.85Zm-427.73-140.47c14.74-11.59,11.51-26-7.22-32.14l-254.18-83.46c-18.72-6.15-45.9-1.74-60.64,9.85l-53.43,42c-14.75,11.59-11.51,26,7.21,32.13L2655.26,2551c18.72,6.16,45.9,1.74,60.64-9.84Zm618.86-9.68c14.75-11.58,11.52-26-7.21-32.13L3126.8,2374c-18.72-6.16-45.9-1.73-60.64,9.84l-53.43,42c-14.75,11.59-11.52,26,7.21,32.14l254.19,83.46c18.72,6.15,45.89,1.75,60.64-9.85Zm-1046.6-130.78c14.75-11.58,11.51-26-7.21-32.12l-254.18-83.48c-18.73-6.16-45.9-1.73-60.65,9.84l-53.43,42c-14.74,11.59-11.51,26,7.22,32.14l254.18,83.46c18.73,6.16,45.9,1.75,60.64-9.84Zm618.87-9.69c14.75-11.57,11.51-26-7.21-32.12l-254.18-83.48c-18.73-6.14-45.9-1.73-60.65,9.85l-53.43,42c-14.74,11.58-11.51,26,7.22,32.12l254.18,83.48c18.72,6.14,45.9,1.73,60.64-9.86Zm618.87-9.69c14.75-11.57,11.5-26-7.22-32.12l-254.18-83.46c-18.72-6.15-45.89-1.75-60.64,9.83l-53.44,42c-14.74,11.58-11.5,26,7.22,32.13l254.18,83.47c18.74,6.14,45.91,1.73,60.66-9.84Zm-1046.6-130.77c14.74-11.58,11.51-26-7.22-32.12L2271.33,2093c-18.73-6.15-45.9-1.74-60.65,9.84l-53.43,42c-14.74,11.58-11.51,26,7.22,32.13l254.18,83.48c18.73,6.13,45.9,1.73,60.65-9.85ZM3151.6,2199c14.74-11.6,11.5-26-7.22-32.14l-254.18-83.47c-18.73-6.15-45.9-1.74-60.65,9.85l-53.43,42c-14.74,11.58-11.51,26,7.22,32.12l254.18,83.48c18.73,6.14,45.89,1.73,60.64-9.85Zm593,5.26c7.11-5.58,6.13-12.34-2.18-15.07l-187.81-61.67c-8.32-2.73-20.85-.42-28,5.17l-25.78,20.25c-7.13,5.6-6.13,12.34,2.18,15.07l187.81,61.68c8.31,2.74,20.85.42,28-5.18Zm-315.43-103.58c7.11-5.58,6.13-12.34-2.18-15.07l-187.81-61.67c-8.32-2.73-20.85-.42-28,5.17l-25.78,20.25c-7.11,5.59-6.13,12.35,2.18,15.08l187.81,61.67c8.31,2.73,20.85.41,28-5.17Zm-705.35-42.15c14.74-11.58,11.51-26-7.22-32.13l-254.18-83.47c-18.72-6.15-45.9-1.74-60.64,9.84l-53.43,42c-14.75,11.58-11.51,26,7.21,32.13l254.18,83.46c18.73,6.15,45.9,1.74,60.65-9.84Zm389.93-61.42c7.11-5.59,6.14-12.35-2.19-15.08l-187.8-61.67c-8.32-2.74-20.85-.42-28,5.17l-25.77,20.25c-7.12,5.59-6.14,12.35,2.18,15.08l187.8,61.67c8.33,2.73,20.86.41,28-5.17Zm-315.43-103.59c7.12-5.58,6.14-12.34-2.19-15.07l-187.8-61.67c-8.32-2.73-20.85-.42-28,5.17l-25.78,20.25c-7.11,5.59-6.13,12.35,2.19,15.08l187.8,61.67c8.32,2.73,20.85.41,28-5.18Z"/><path class="cls-20" d="M4282.73,1710.77c12.65-32.15,2.23-64.84-23.25-73l-1315-418.59c-25.48-8.12-56.44,11.4-69.09,43.55l-107.82,274c-12.64,32.15-2.22,64.83,23.26,72.94l1315,418.6c25.48,8.11,56.44-11.4,69.09-43.55Z"/><path class="cls-28" d="M4282.73,1710.77c12.65-32.15,2.23-64.84-23.25-73l-1315-418.59c-25.48-8.12-56.44,11.4-69.09,43.55l-107.82,274c-12.64,32.15-2.22,64.83,23.26,72.94l1315,418.6c25.48,8.11,56.44-11.4,69.09-43.55Z"/><path class="cls-29" d="M3123.54,1576.68c9.88,3.1,18.29.1,25.37-9s14.46-23,22.08-42q12-29.71,13.13-45.47c.79-10.48-3.68-17.25-13.56-20.35s-18.25-.37-25.21,8.18-14.5,22.72-22.48,42.54q-11.43,28.36-12.73,44.89C3109.22,1566.54,3113.74,1573.6,3123.54,1576.68Zm81.61-40.2c-10.93,27.15-23.74,46.69-38.26,58.66s-32.49,14.6-53.95,7.87-33.5-18.79-36.21-36.17,1.41-39.65,12.35-66.8,23.68-46.76,38.23-58.8,32.6-14.69,54-8,33.5,18.82,36.17,36.28S3216.09,1509.32,3205.15,1536.48Z"/><polygon class="cls-29" points="3209.82 1590.73 3244.98 1601.76 3231.36 1635.57 3196.2 1624.54 3209.82 1590.73"/><path class="cls-29" d="M3321.75,1638.9q14.72,4.62,25.37-9t22.08-42q12-29.71,13.13-45.47t-13.56-20.35c-9.8-3.08-18.25-.37-25.21,8.18S3329,1553,3321,1572.84q-11.41,28.37-12.65,44.91C3307.43,1628.76,3312,1635.82,3321.75,1638.9Zm81.54-40.23q-16.41,40.72-38.19,58.69t-53.95,7.86q-32.19-10.1-36.21-36.16t12.35-66.8q16.41-40.74,38.23-58.8t54-8q32.2,10.11,36.17,36.28T3403.29,1598.67Z"/><path class="cls-29" d="M3453.94,1680.4q14.71,4.61,25.37-9t22-42q12-29.71,13.2-45.44T3501,1563.64c-9.87-3.1-18.25-.36-25.28,8.16s-14.51,22.72-22.49,42.54q-11.42,28.37-12.72,44.89C3439.62,1670.26,3444.07,1677.3,3453.94,1680.4Zm81.54-40.23q-16.41,40.72-38.19,58.68c-14.53,12-32.56,14.58-53.95,7.87s-33.5-18.79-36.21-36.17,1.34-39.67,12.27-66.82,23.69-46.75,38.31-58.78,32.53-14.71,54-8,33.5,18.82,36.17,36.27S3546.42,1613,3535.48,1640.17Z"/><path class="cls-29" d="M3692.24,1625.85q-10.35,4.8-30.91,19a266.19,266.19,0,0,0-37.44,30.87q-13.3,13.07-27.86,33.43t-20.26,34.53l-34.39-10.79q19.38-43.76,66.77-82.69,30.2-23.88,47.15-31.72l-83.92-26.34,12.22-28.89,118.82,37.3Z"/><path class="cls-29" d="M3773.87,1619q38.45,12.08,39.34,49.81.55,21.38-11.87,52.12-12,29.83-27.86,47.36-30.12,33.36-69.82,20.9c-12.62-4-22.44-11.15-29.6-21.62s-8.59-22.92-4.44-37.38l33,10.35a19.72,19.72,0,0,0,1.49,13.76q3.28,6.15,11.76,8.8c10.92,3.43,20.94-.06,30.15-10.47,5-5.76,10.3-14.78,16-27.05a42.88,42.88,0,0,1-13.08,5.48c-7.63,1.69-16,1.11-25.07-1.74a50.17,50.17,0,0,1-30.11-24.73q-10.14-18.45.15-44,10.63-26.43,32.84-37.94T3773.87,1619Zm-17.75,86.45c9.39-2.33,16.38-9.29,21-20.87q5.63-14,2.23-24.22t-15-13.91a25.37,25.37,0,0,0-16.36.11c-8.33,2.83-14.76,10.07-19.42,21.64-3.93,9.75-4.87,17.7-2.75,23.87s7.3,10.53,15.77,13.19A25.82,25.82,0,0,0,3756.12,1705.46Z"/><path class="cls-29" d="M3849.85,1804.67q11.36,3.57,20.51-1.1c6-3.14,10.79-8.71,14-16.81,3.38-8.39,3.72-15.47,1.09-21.19s-7.62-9.74-15.05-12.07-14.24-2-20.3,1-10.93,8.65-14.31,17q-4.89,12.13-1.12,20.86T3849.85,1804.67Zm-6.95-75.8c-6-7.86-9-15.25-9-22.18a49.46,49.46,0,0,1,3.33-18.44q7.22-17.93,26.12-26.24t44.09-.41q25.17,7.89,33.89,24.88t1.5,34.92a55.93,55.93,0,0,1-10.61,16.15c-4.93,5.4-12.36,9.1-22.36,11.07a43.38,43.38,0,0,1,11.45,23.92,53.06,53.06,0,0,1-3.86,27c-5.57,13.84-15.52,24-30,30.4s-31,6.71-49.76.81-31.09-15.23-36.83-28-5.82-26-.25-39.89a58.42,58.42,0,0,1,16.49-23.07A48.07,48.07,0,0,1,3842.9,1728.87Zm37.51-.1c6.69,2.09,12.72,1.85,17.89-.79s9-6.93,11.39-12.9c2.62-6.51,2.88-12.16.65-17s-6.7-8.31-13.38-10.4-12.62-1.9-17.81.61-9.17,7-11.79,13.49c-2.41,6-2.52,11.43-.25,16.4S3873.73,1726.67,3880.41,1728.77Z"/><path class="cls-30" d="M2770.59,1594.25a72.87,72.87,0,0,1,5-33.94l107.81-274c12.65-32.15,43.61-51.66,69.09-43.55l1315,418.59a38.15,38.15,0,0,1,20.26,15.52c-1.92-18.66-12.05-33.83-28.31-39l-1315-418.59c-25.48-8.12-56.43,11.4-69.08,43.55l-107.82,274C2759.2,1558.18,2761,1579.77,2770.59,1594.25Z"/><path class="cls-31" d="M3987.61,1551.28,3378,1796.68l376.21,119.76,530.29-253.62c-4.5-12-13.14-21.2-25.08-25Zm-392.57-125-698.37,217.14L2791.54,1610l702.92-215.68Zm-781-7.51-46.43,118a75.76,75.76,0,0,0-5.29,24l631.21-198.66-195.86-62.34Z"/><ellipse class="cls-32" cx="3624.26" cy="2063.6" rx="24.74" ry="72.48" transform="translate(577.32 4911.39) rotate(-72.72)"/><ellipse class="cls-32" cx="3167.84" cy="1901.72" rx="24.74" ry="72.48" transform="translate(411.04 4361.76) rotate(-72.72)"/><ellipse class="cls-32" cx="3408.41" cy="1986.39" rx="24.74" ry="72.48" transform="translate(499.31 4651) rotate(-72.72)"/><ellipse class="cls-32" cx="2951.99" cy="1824.53" rx="24.74" ry="72.48" transform="translate(333.01 4101.39) rotate(-72.72)"/><path class="cls-33" d="M1615.48,1276l-61.85,50.9a44.32,44.32,0,0,0-15.49,36.72c1,13.81,8.91,24.68,20.28,27.95l720.38,207.69c24.91,7.18,52.86-1.07,74.59-22,112.11-108.08,670.17-680.91,824.72-839.7a36.89,36.89,0,0,0,9.95-30.57c-1.64-10.83-8.48-18.94-17.76-21L3058.82,660.7Z"/><path class="cls-34" d="M3108.61,676.14,1615.48,1276l-61.85,50.9a40.9,40.9,0,0,0-6.85,7.24l713,212.64c37.45,11.17,79.69-1.44,112.14-33.47,134.55-132.81,474.43-479.28,618.58-626.43,41.08-41.94,66.26-67.69,66.26-67.69l53.12-132.9Z"/><path class="cls-35" d="M3172.73,466.68s8.46,34.54,10.21,54.36a85.58,85.58,0,0,1-6.18,39.64c-21.17,51.77-84.9,181.47-105.87,232.75a97.31,97.31,0,0,1-22,32.87L2371.41,1486c-33.54,32.66-77,45.34-115.39,33.69-149.84-45.38-530.84-153.32-656-191.23-24.86-7.53-45.32-39.44-47.64-69.75-1.61-21.1-1.77-41.16-1.77-41.16Z"/><path class="cls-35" d="M3177.6,508.23c-60.29,131.19-94,254.08-106.71,285.2a97.34,97.34,0,0,1-21.95,32.86l-211.66,206.08c-23.25-1.07-45.58-5.6-64.4-13.67-17-7.3-29-18.05-32.18-39.9-.24-1.73-2.76-6.86-2.16-8.47,2.59-6.88,124.47-54.9,136.63-60.34,83.12-37.23,155.29-111.38,204.89-198,15.42-26.91,27.5-69.06,41.88-99.33C3146.26,561.41,3141.4,550.57,3177.6,508.23Z"/><path class="cls-36" d="M2234.43,544.21a53.14,53.14,0,0,1-8.9,11.54l-662.27,647a32,32,0,0,0-9.23,26.07c1.12,9.4,6.72,16.66,14.57,18.86l710.06,200.08c19.17,5.4,40.65-1.1,57.25-17.32l675.63-660.08.14,0s113.58-197.31,159.44-276.95a33.75,33.75,0,0,0,3.6-25.3c-2.21-8.12-7.73-14.07-14.92-16.08-124.2-34.82-594.65-166-720.4-201.21-18.38-5.15-39.05,5.11-50.56,25.1Z"/><path class="cls-37" d="M2231.23,533.73a53.14,53.14,0,0,1-8.9,11.54l-662.27,647a32,32,0,0,0-9.23,26.07c1.12,9.4,6.72,16.66,14.57,18.86,137.15,38.65,588,165.7,710.06,200.07,19.17,5.41,40.65-1.09,57.25-17.31,128.08-125.12,675.63-660.08,675.63-660.08l.14,0,149.2-259.16c75.93-131.91-31.1,54-8.37,14.53a33.78,33.78,0,0,0,3.61-25.29c-2.22-8.12-7.75-14.08-14.93-16.09L2418,272.09c-18.37-5.16-39.05,5.11-50.55,25.09Z"/><ellipse class="cls-38" cx="2658.6" cy="734.96" rx="25.06" ry="192.99" transform="translate(1228.65 3093.68) rotate(-74.23)"/><path class="cls-26" d="M2349.69,1313c4.68-4.53,3.86-9.47-1.82-11l-77.16-21.34c-5.68-1.58-14.1.81-18.77,5.33l-17,16.36c-4.67,4.52-3.85,9.46,1.83,11L2314,1334.7c5.68,1.58,14.09-.81,18.77-5.33Zm-129.83-36c4.67-4.52,3.85-9.46-1.83-11l-77.16-21.35c-5.68-1.57-14.1.82-18.77,5.34l-16.95,16.36c-4.67,4.52-3.85,9.46,1.83,11l77.16,21.36c5.68,1.57,14.09-.82,18.77-5.33Zm245.53-70c8.44-8.16,7-17.08-3.29-19.92l-139.21-38.52c-10.26-2.84-25.44,1.46-33.87,9.62l-30.58,29.53c-8.43,8.16-7,17.08,3.3,19.91L2401,1246.18c10.25,2.85,25.42-1.47,33.86-9.62Zm-234.26-64.84c8.43-8.16,7-17.08-3.3-19.92l-139.22-38.52c-10.25-2.84-25.43,1.47-33.86,9.62l-30.58,29.53c-8.44,8.16-7,17.08,3.3,19.92l139.21,38.52c10.26,2.85,25.44-1.47,33.87-9.62Zm343.63-40.82c8.44-8.14,7-17.07-3.29-19.9l-139.22-38.54c-10.25-2.84-25.43,1.48-33.87,9.62l-30.57,29.54c-8.44,8.15-7,17.07,3.3,19.91l139.22,38.53c10.25,2.84,25.43-1.47,33.86-9.63Zm-577.9-24c8.43-8.15,7-17.07-3.3-19.91l-139.22-38.53c-10.25-2.84-25.43,1.48-33.87,9.62l-30.57,29.53c-8.44,8.16-7,17.08,3.3,19.92l139.21,38.53c10.26,2.84,25.44-1.47,33.87-9.63Zm343.64-40.82c8.43-8.14,7-17.06-3.3-19.9L2198,978.09c-10.25-2.83-25.43,1.48-33.87,9.63l-30.57,29.54c-8.44,8.14-7,17.06,3.3,19.9l139.21,38.54c10.26,2.83,25.44-1.48,33.87-9.64Zm343.64-40.82c8.43-8.14,7-17.06-3.3-19.9l-139.22-38.53c-10.25-2.84-25.43,1.47-33.86,9.62l-30.58,29.54c-8.44,8.15-7,17.08,3.29,19.91l139.22,38.53c10.26,2.83,25.44-1.48,33.88-9.62Zm-577.92-24c8.44-8.14,7-17.06-3.29-19.9l-139.22-38.53c-10.25-2.84-25.43,1.47-33.87,9.62l-30.57,29.54c-8.44,8.14-7,17.06,3.3,19.9l139.21,38.54c10.26,2.83,25.43-1.48,33.87-9.62Zm343.65-40.8c8.44-8.16,7-17.08-3.3-19.92l-139.22-38.53c-10.25-2.84-25.43,1.48-33.87,9.63l-30.57,29.53c-8.44,8.15-7,17.08,3.3,19.91L2385.42,970c10.26,2.83,25.43-1.48,33.87-9.62Zm329-29.92c4.07-3.93,3.68-8.15-.87-9.41L2675.1,863.1c-4.55-1.27-11.55.9-15.62,4.83l-14.75,14.25c-4.08,3.94-3.68,8.15.87,9.41l102.87,28.47c4.55,1.27,11.55-.9,15.62-4.84Zm-172.76-47.81c4.07-3.93,3.68-8.15-.87-9.41l-102.87-28.47c-4.55-1.26-11.56.91-15.63,4.84L2472,834.37c-4.07,3.93-3.67,8.15.88,9.41l102.86,28.47c4.56,1.26,11.56-.91,15.63-4.84ZM2215.59,866c8.44-8.15,7-17.07-3.29-19.91L2073.08,807.6c-10.25-2.83-25.43,1.48-33.87,9.63l-30.57,29.53c-8.44,8.15-7,17.07,3.3,19.91l139.21,38.53c10.26,2.84,25.43-1.47,33.87-9.62Zm217.74-60.69c4.07-3.93,3.68-8.15-.89-9.41l-102.85-28.47c-4.56-1.26-11.56.91-15.63,4.84l-14.76,14.25c-4.07,3.93-3.67,8.15.89,9.41L2403,824.44c4.56,1.26,11.56-.91,15.63-4.84Zm-172.76-47.82c4.07-3.93,3.68-8.14-.88-9.41l-102.86-28.46c-4.56-1.26-11.56.9-15.63,4.84l-14.75,14.25c-4.08,3.93-3.68,8.15.88,9.41l102.86,28.46c4.55,1.26,11.56-.9,15.63-4.84Z"/><path class="cls-35" d="M2349.59,1296.23c4.62-4.52,7.45-26.86,1.84-28.43l-79.78-4.06c-5.61-1.58-13.92.8-18.53,5.31l-16.6.58c-4.61,4.51-3.95,25.21,1.66,26.8l76.15,21.46c5.61,1.58,13.91-.8,18.53-5.31Zm-128.14-36.11c4.62-4.51,7.42-26.23,1.81-27.81l-79.75-4.68c-5.61-1.58-13.92.8-18.53,5.31l-17,.56c-4.61,4.51-3.59,25.24,2,26.82l76.15,21.46c5.61,1.58,13.91-.8,18.53-5.31Zm242.39-69.72c8.33-8.14,11-33,.85-35.82l-141.48-22.81c-10.13-2.85-25.11,1.44-33.44,9.58l-30.51,15.51c-8.33,8.15-6.56,31.05,3.56,33.9l137.4,38.72c10.12,2.85,25.1-1.45,33.43-9.58Zm-231.2-65.15c8.33-8.14,6.88-17.06-3.25-19.92L2092,1066.62c-10.12-2.85-25.1,1.44-33.43,9.58l-32.11,17.29c-8.33,8.14-5,29.27,5.16,32.13L2169,1164.33c10.13,2.85,25.11-1.45,33.44-9.58Zm339.2-40.37c8.33-8.13,11.1-32.94,1-35.78l-141.61-22.85c-10.12-2.85-25.1,1.45-33.43,9.58l-29.95,13.27c-8.33,8.13-7.12,33.29,3,36.15l137.4,38.71c10.12,2.85,25.1-1.44,33.43-9.58Zm-570.41-24.77c8.33-8.14,10.9-32.34.78-35.19l-141.41-23.44c-10.13-2.86-25.11,1.44-33.44,9.58L1796,1026.27c-8.33,8.14-5.7,31.34,4.42,34.2l137.4,38.71c10.12,2.85,25.1-1.44,33.43-9.58Zm339.21-40.37c8.33-8.14,6.87-17.06-3.25-19.92L2200,961.11c-10.12-2.85-25.1,1.44-33.44,9.58l-29.95,14.48c-8.33,8.15-7.11,32.07,3,34.93L2277,1058.82c10.12,2.84,25.11-1.45,33.44-9.59Zm339.2-40.37c8.33-8.14,10.54-35.79.42-38.64l-141.06-20c-10.12-2.86-25.1,1.43-33.43,9.57l-31.13,15.28c-8.33,8.14-5.94,31.29,4.18,34.13l137.39,38.72c10.13,2.84,25.11-1.45,33.44-9.58Zm-570.41-24.78c8.33-8.14,10.92-33,.8-35.81L1968.79,896c-10.12-2.85-25.1,1.44-33.43,9.58l-31.9,15.38c-8.33,8.14-5.17,31.18,5,34l137.4,38.72c10.12,2.85,25.1-1.44,33.43-9.58Zm339.21-40.36c8.33-8.15,11.47-32.59,1.35-35.44l-142-23.2c-10.12-2.85-25.11,1.44-33.44,9.58l-30.13,14.27c-8.33,8.14-6.94,32.3,3.19,35.14L2385,953.3c10.12,2.85,25.1-1.44,33.43-9.58Zm324.73-29.49c4-3.92,6.6-25.35,2.11-26.61L2671,846.73c-4.5-1.27-11.41.89-15.43,4.82l-14.24-2.31c-4,3.93-4,24.68.53,26l101.52,28.6c4.49,1.28,11.41-.89,15.43-4.82Zm-170.51-48c4-3.92,6.71-24.84,2.22-26.11l-104.59-11.9c-4.5-1.27-11.41.89-15.43,4.82l-14.56-1.35c-4,3.93-3.64,23.72.85,25l101.52,28.6c4.49,1.27,11.41-.89,15.43-4.82Zm-385.43,12.38c8.33-8.14,11.16-33.9,1-36.75l-141.68-21.88c-10.12-2.85-25.1,1.44-33.43,9.58l-31.46,15.05c-8.33,8.14-5.61,31.51,4.51,34.36l137.4,38.71c10.12,2.85,25.1-1.44,33.43-9.58Zm214.94-60.42c4-3.93,6.61-25.21,2.11-26.48L2330,750.65c-4.5-1.27-11.41.89-15.43,4.82l-14.9-1.38c-4,3.93-3.3,23.75,1.2,25l101.51,28.6c4.5,1.27,11.42-.89,15.44-4.82Zm-170.5-48c4-3.93,6.76-25.56,2.26-26.83L2159.5,702.6c-4.5-1.26-11.42.9-15.44,4.82l-14.58-2c-4,3.93-3.61,24.37.88,25.64l101.52,28.6c4.49,1.27,11.41-.89,15.43-4.82Z"/><path class="cls-39" d="M2351,1277.48c4.61-4.52,3.81-9.46-1.8-11L2273,1245c-5.61-1.58-13.91.8-18.53,5.31l-16.73,16.34c-4.62,4.51-3.81,9.45,1.8,11l76.14,21.47c5.61,1.58,13.92-.8,18.54-5.31Zm-128.14-36.11c4.61-4.51,3.81-9.46-1.8-11l-76.15-21.45c-5.61-1.58-13.91.8-18.53,5.31l-16.73,16.34c-4.62,4.51-3.81,9.46,1.8,11l76.14,21.46c5.61,1.58,13.92-.8,18.53-5.31Zm242.38-69.72c8.33-8.14,6.89-17.07-3.23-19.92L2324.57,1113c-10.12-2.85-25.1,1.44-33.44,9.58l-30.19,29.49c-8.33,8.15-6.87,17.07,3.25,19.92l137.39,38.71c10.12,2.86,25.1-1.44,33.44-9.58ZM2234,1106.5c8.33-8.14,6.88-17.06-3.24-19.92l-137.4-38.71c-10.12-2.85-25.1,1.44-33.43,9.58l-30.19,29.49c-8.33,8.15-6.88,17.07,3.24,19.93l137.4,38.71c10.12,2.85,25.1-1.45,33.43-9.58Zm339.2-40.37c8.34-8.13,6.89-17.06-3.24-19.91l-137.39-38.72c-10.12-2.85-25.1,1.45-33.44,9.58l-30.19,29.5c-8.33,8.14-6.87,17.06,3.25,19.92l137.4,38.71c10.11,2.85,25.1-1.44,33.43-9.58Zm-570.4-24.78c8.33-8.13,6.88-17.06-3.25-19.91l-137.39-38.72c-10.12-2.85-25.1,1.45-33.44,9.58l-30.19,29.5c-8.33,8.14-6.87,17.06,3.25,19.92l137.39,38.71c10.13,2.85,25.11-1.44,33.44-9.58ZM2342,1001c8.33-8.13,6.88-17.05-3.24-19.91l-137.4-38.72c-10.12-2.84-25.1,1.45-33.43,9.58l-30.19,29.51c-8.33,8.13-6.88,17,3.24,19.91l137.4,38.72c10.12,2.84,25.1-1.45,33.43-9.59Zm339.21-40.37c8.33-8.13,6.87-17.05-3.25-19.91L2540.57,902c-10.12-2.86-25.1,1.43-33.43,9.56l-30.2,29.51c-8.33,8.13-6.87,17.06,3.24,19.91l137.4,38.72c10.13,2.84,25.11-1.45,33.44-9.58ZM2110.8,935.84c8.33-8.14,6.87-17.06-3.25-19.92l-137.39-38.71c-10.12-2.85-25.11,1.44-33.44,9.58l-30.19,29.5c-8.33,8.13-6.87,17.05,3.25,19.91l137.39,38.72c10.12,2.84,25.11-1.45,33.44-9.58ZM2450,895.48c8.34-8.15,6.88-17.07-3.24-19.93l-137.4-38.71c-10.12-2.85-25.1,1.44-33.43,9.58l-30.19,29.5c-8.33,8.14-6.88,17.07,3.24,19.91l137.4,38.72c10.12,2.84,25.1-1.45,33.43-9.58ZM2774.73,866c4-3.92,3.63-8.15-.86-9.41L2672.35,828c-4.49-1.27-11.41.89-15.43,4.82L2642.36,847c-4,3.93-3.63,8.14.86,9.41L2744.74,885c4.49,1.28,11.4-.89,15.42-4.82Zm-170.5-48c4-3.93,3.63-8.14-.86-9.41l-101.52-28.6c-4.49-1.27-11.41.89-15.43,4.82L2471.86,799c-4,3.92-3.64,8.14.86,9.41L2574.24,837c4.49,1.27,11.4-.89,15.42-4.82ZM2218.8,830.33c8.33-8.14,6.87-17.07-3.25-19.92L2078.16,771.7c-10.12-2.86-25.11,1.44-33.44,9.58l-30.19,29.49c-8.33,8.14-6.87,17.07,3.25,19.92l137.39,38.71c10.12,2.85,25.1-1.44,33.44-9.58Zm214.94-60.42c4-3.93,3.63-8.14-.87-9.41l-101.51-28.6c-4.5-1.27-11.42.89-15.43,4.81L2301.36,751c-4,3.92-3.63,8.14.86,9.41L2403.74,789c4.5,1.27,11.41-.89,15.43-4.82Zm-170.5-48c4-3.93,3.63-8.15-.87-9.41l-101.51-28.61c-4.5-1.26-11.41.9-15.43,4.82l-14.57,14.23c-4,3.93-3.63,8.15.87,9.42l101.51,28.6c4.5,1.27,11.41-.89,15.43-4.82Z"/><path class="cls-39" d="M3115.18,511.63c3.92-6.81-3.42-15.29-16.38-18.92L2430,305.22c-13-3.64-26.66-1.06-30.58,5.75l-109,189.27c-3.92,6.81,3.42,15.29,16.38,18.92l668.8,187.49c13,3.63,26.66,1.06,30.59-5.76Z"/><path class="cls-40" d="M2417.43,470.5q13.13-12.24,43.77-21.49,26.64-8.06,35.47-12.29c9-4.45,15.32-10.28,18.9-17.52,2.92-5.9,3.59-11.29,2.09-16.15s-5.46-8.17-11.88-9.95c-8.82-2.43-16.32-1-22.57,4.38-3.59,3.09-7.45,8.51-11.7,16.23L2443.44,406q9.57-17.58,21-26.89,21.89-17.67,51.35-9.55c15.56,4.29,25.86,11.77,31,22.5s4.36,22.79-2.3,36.25a59,59,0,0,1-23.32,24.83c-6.84,4.15-16.78,8.16-29.73,12l-15.4,4.61c-9.67,2.88-16.34,5-20.07,6.49a45,45,0,0,0-10.5,5.74l64.12,17.68-11.94,24.15L2397.08,496A87,87,0,0,1,2417.43,470.5Z"/><path class="cls-40" d="M2572.49,523c8.55,2.36,16.23-.35,23.15-8.1s14.22-19.67,22.14-35.7q12.46-25.2,14.5-38.41c1.27-8.83-2.31-14.41-10.87-16.77s-16.26.11-23,7.41-14.29,19.38-22.6,36.18q-11.88,24.06-14,37.94C2560.33,514.81,2563.86,520.62,2572.49,523Zm75.11-35.57Q2630.55,522,2610,537.51t-48.57,7.81c-18.74-5.17-28.76-15-30.19-29.54s3.63-33.28,15-56.3,23.91-39.75,37.62-50.18,29.95-13.05,48.68-7.88,28.68,15,30.09,29.6S2659,464.41,2647.6,487.43Z"/><polygon class="cls-40" points="2648.52 532.83 2679.21 541.29 2665.04 569.95 2634.35 561.49 2648.52 532.83"/><path class="cls-40" d="M2745.45,570.72c8.62,2.37,16.3-.34,23.16-8.1s14.28-19.65,22.2-35.68c8.31-16.81,13.16-29.6,14.43-38.44s-2.24-14.39-10.86-16.77-16.26.11-23,7.44-14.29,19.37-22.6,36.18q-11.88,24-14,37.93C2733.29,562.53,2736.89,568.36,2745.45,570.72Zm75.18-35.56q-17.05,34.53-37.63,50.06T2734.42,593c-18.67-5.15-28.75-15-30.12-29.52s3.63-33.28,15-56.3,23.91-39.75,37.62-50.18,30-13,48.62-7.9,28.74,15,30.08,29.61S2832,512.14,2820.63,535.16Z"/><path class="cls-40" d="M2860.85,602.55q12.84,3.54,23.16-8.1t22.2-35.68c8.31-16.81,13.09-29.62,14.43-38.43s-2.31-14.42-10.87-16.78-16.26.11-23,7.42-14.29,19.38-22.59,36.18c-7.93,16-12.56,28.69-14,37.94S2852.29,600.19,2860.85,602.55ZM2936,567q-17.07,34.53-37.57,50.08c-13.67,10.36-29.91,13-48.58,7.81s-28.76-15-30.13-29.53,3.64-33.28,15-56.3,23.92-39.74,37.63-50.18,29.88-13.06,48.61-7.9,28.75,15,30.09,29.61S2947.35,544,2936,567Z"/><path class="cls-35" d="M2291.81,509.92a43.39,43.39,0,0,1,6-18l89.87-154.28c9.94-17.26,28.61-28.31,41.68-24.65l674.11,189a15,15,0,0,1,9.52,7.69c.75-9.79-3.3-17.56-11.63-19.89l-674.13-189c-13.06-3.66-31.73,7.39-41.67,24.65L2295.67,479.7C2289.07,491.17,2288,502.52,2291.81,509.92Z"/><ellipse class="cls-41" cx="2913.06" cy="714" rx="8.38" ry="20.28" transform="translate(1503.4 3361.37) rotate(-75.74)"/><ellipse class="cls-41" cx="2851.98" cy="694.67" rx="8.38" ry="20.28" transform="translate(1476.1 3287.6) rotate(-75.74)"/><path class="cls-27" d="M2262.08,554.46a2.18,2.18,0,0,1,1.68-.22l688,196.66a2.38,2.38,0,0,1,1.59,2.34,3.44,3.44,0,0,1-1.46,2.89c-.23.15-.43.29-.63.41a2.27,2.27,0,0,1-1.87.34L2260.24,560.79a2.42,2.42,0,0,1-1.6-2.45,3.41,3.41,0,0,1,1.65-2.89Z"/><path class="cls-39" d="M2262.08,554.46a2.18,2.18,0,0,1,1.68-.22l688,196.66a2.38,2.38,0,0,1,1.59,2.34,3.44,3.44,0,0,1-1.46,2.89c-.23.15-.43.29-.63.41a2.27,2.27,0,0,1-1.87.34L2260.24,560.79a2.42,2.42,0,0,1-1.6-2.45,3.41,3.41,0,0,1,1.65-2.89Z"/><path class="cls-35" d="M2260.24,560.79l689.13,196.09-.87,5.92L2259.71,566.68Z"/><path class="cls-42" d="M4064.55,703.23a38,38,0,0,0-38-38.11h-804A60.74,60.74,0,0,0,3161.94,726v512.29a15.8,15.8,0,0,0,29.94,7.12c16.55-33.08,36.88-73.69,52.52-104.94a89.24,89.24,0,0,1,79.79-49.39h690.74a49.68,49.68,0,0,0,49.62-49.79Z"/><path class="cls-43" d="M3530.73,808.1q-9.27,9.1-25.64,32.46a284.43,284.43,0,0,0-27.57,48.21q-8.85,19.51-15.86,47.7c-4.71,18.79-7,34.22-7,46.26H3412q1.93-56.37,36.89-117.24,22.68-37.72,37.9-52.62H3382.53l.64-37h147.56Z"/><path class="cls-43" d="M3617.7,771.38q47.73,0,65.48,42.36,10.11,24,10.06,63.18,0,38-9.69,63.46-18.39,48.43-67.69,48.42a69,69,0,0,1-42.24-13.94c-12.45-9.31-19.65-22.87-21.49-40.7h40.95a25.44,25.44,0,0,0,7.75,15q6.36,5.79,16.87,5.79c13.56,0,23.06-7.52,28.59-22.55,2.95-8.29,4.8-20.38,5.63-36.29a45,45,0,0,1-12,10.85c-7.66,4.62-17.16,6.94-28.41,6.94q-24.9,0-44.17-17.29T3548,846.85q0-33.69,19.37-54.58T3617.7,771.38Zm18.82,104.08c9.31-6,13.92-16.33,13.92-31.07q0-17.79-8.3-28.2t-22.69-10.4a28.06,28.06,0,0,0-18,5.93c-7.93,6.16-11.8,16.62-11.8,31.36,0,12.44,2.49,21.76,7.56,28s12.73,9.33,23.24,9.33A28.81,28.81,0,0,0,3636.52,875.46Z"/><path class="cls-43" d="M3783.89,954.4q14.12,0,22.14-8.53c5.25-5.69,8-13.68,8-24,0-10.69-2.77-18.82-8.21-24.36s-12.72-8.31-22-8.31-16.6,2.77-21.95,8.31-8.21,13.67-8.21,24.36q0,15.48,8,24T3783.89,954.4Zm-41.31-83.27c-10.15-6.75-16.7-14-19.74-21.91a61.1,61.1,0,0,1-4.52-22q0-22.85,17.15-39t48.42-16.12q31.28,0,48.42,16.12t17.16,39c0,6.83-1.57,14.19-4.52,22s-9.59,14.68-19.74,20.46q15.49,8.67,23.24,23a66,66,0,0,1,7.75,32c0,17.64-6.46,32.65-19.55,45s-31.18,18.58-54.51,18.58-41-6.19-53-18.58-18-27.39-18-45a65.08,65.08,0,0,1,7.93-32A50.82,50.82,0,0,1,3742.58,871.13Zm41.31-13.44c8.3,0,14.85-2.41,19.37-7.23s6.82-11,6.82-18.65c0-8.29-2.21-14.77-6.82-19.45s-11.07-7-19.37-7-14.75,2.34-19.36,7-7,11.16-7,19.45c0,7.62,2.3,13.83,7,18.65S3775.59,857.69,3783.89,857.69Z"/><path class="cls-44" d="M4357.15,698.45a30.83,30.83,0,0,0-30.76-30.86H4140.62a30.82,30.82,0,0,0-30.76,30.86v364a30.82,30.82,0,0,0,30.76,30.86h185.77a30.83,30.83,0,0,0,30.76-30.86Z"/><path class="cls-45" d="M4213.17,950.51c0,5.73.95,10.46,2.77,14.21,3.4,6.91,9.64,10.37,18.58,10.37a20.51,20.51,0,0,0,14.41-5.68c4.1-3.78,6.17-9.23,6.17-16.33,0-9.41-3.77-15.69-11.39-18.85-4.35-1.77-11.15-2.66-20.46-2.66V911.44c9.06-.13,15.48-1,19.07-2.67,6.23-2.76,9.32-8.35,9.32-16.78,0-5.45-1.57-9.89-4.78-13.32s-7.62-5.13-13.41-5.13c-6.61,0-11.46,2.11-14.61,6.32s-4.6,9.83-4.47,16.87h-26.19a73.68,73.68,0,0,1,3.65-20.23A46.12,46.12,0,0,1,4202.66,861a37.62,37.62,0,0,1,13.1-7.7c5-1.78,11.26-2.66,18.57-2.66q20.49,0,33,10.6c8.37,7.08,12.59,16.57,12.59,28.47,0,8.42-2.52,15.53-7.5,21.32a25.43,25.43,0,0,1-9.82,7.4c2.52,0,6.24,2.21,11,6.62q10.68,10,10.7,27.23a46.13,46.13,0,0,1-12.52,31.92Q4259.22,998,4234.64,998q-30.31,0-42.11-19.83c-4.16-7-6.43-16.26-6.87-27.64Z"/><path class="cls-45" d="M4130.72,710h6.48l11.77,20.7V710h5.76v29.65h-6.18l-12.07-21.06v21.06h-5.76Z"/><path class="cls-45" d="M4165.72,717.75V731a7,7,0,0,0,.43,2.82,3.08,3.08,0,0,0,3.07,1.67,4,4,0,0,0,4-2.38,8.67,8.67,0,0,0,.56-3.4V717.75h5.79v21.92H4174v-3.1l-.4.61a4,4,0,0,1-.75.88,7.73,7.73,0,0,1-2.61,1.65,8.62,8.62,0,0,1-2.92.44c-3.25,0-5.42-1.16-6.55-3.5a13.39,13.39,0,0,1-.93-5.69V717.75Z"/><path class="cls-45" d="M4214.92,719.8a6.18,6.18,0,0,1,1.24,2.81,18.71,18.71,0,0,1,.21,3.24l0,13.82h-5.87v-14a4.57,4.57,0,0,0-.39-2.05,2.84,2.84,0,0,0-2.81-1.53,3.28,3.28,0,0,0-3.26,2,6.19,6.19,0,0,0-.47,2.52v13h-5.76v-13a7.33,7.33,0,0,0-.4-2.84,2.78,2.78,0,0,0-2.82-1.59,3.4,3.4,0,0,0-3.3,1.59,6.42,6.42,0,0,0-.45,2.7v13.19H4185V717.79h5.56V721a9.3,9.3,0,0,1,2-2.43,7.91,7.91,0,0,1,8.37-.18,6.36,6.36,0,0,1,1.87,2.64,7.28,7.28,0,0,1,2.8-2.84,8.52,8.52,0,0,1,3.93-.91,7.55,7.55,0,0,1,2.85.57A6.3,6.3,0,0,1,4214.92,719.8Z"/><path class="cls-45" d="M4242.61,728.43a14.23,14.23,0,0,1-2.4,8.47,8.69,8.69,0,0,1-11.08,2.27,8.62,8.62,0,0,1-2.11-2.25v2.75h-5.61V710.06h5.7V720.6a8.45,8.45,0,0,1,2.38-2.33,7.11,7.11,0,0,1,3.94-1,8.07,8.07,0,0,1,6.74,3.12A12.66,12.66,0,0,1,4242.61,728.43Zm-6,.6a10.66,10.66,0,0,0-.61-3.86,4.19,4.19,0,0,0-4.21-2.9,4.25,4.25,0,0,0-4.27,2.84,10.69,10.69,0,0,0-.6,3.9,8.28,8.28,0,0,0,1.24,4.67,4.27,4.27,0,0,0,3.79,1.85,4,4,0,0,0,3.44-1.79A8.25,8.25,0,0,0,4236.62,729Z"/><path class="cls-45" d="M4250.87,726.52h8.88a5,5,0,0,0-1.37-3.45,4.23,4.23,0,0,0-3.05-1.18,3.88,3.88,0,0,0-3.08,1.25A6.1,6.1,0,0,0,4250.87,726.52Zm13-5.09a11.24,11.24,0,0,1,1.66,4.52,27.58,27.58,0,0,1,.17,4.35h-15q.12,3.3,2.07,4.62a4.82,4.82,0,0,0,2.85.83,4.09,4.09,0,0,0,2.86-1,4.8,4.8,0,0,0,1.06-1.5h5.84a7.26,7.26,0,0,1-2,4,9.91,9.91,0,0,1-7.86,3.2,11,11,0,0,1-7.35-2.7c-2.14-1.8-3.19-4.72-3.19-8.77,0-3.79,1-6.7,2.88-8.73a9.82,9.82,0,0,1,7.47-3,11.46,11.46,0,0,1,4.9,1A8.57,8.57,0,0,1,4263.85,721.43Z"/><path class="cls-45" d="M4282.17,717.26v5.88c-.36,0-.68-.07-1-.08s-.52,0-.68,0c-2.3,0-3.85.75-4.63,2.25a8.78,8.78,0,0,0-.67,3.9v10.48h-5.75V717.75h5.45v3.82a12.85,12.85,0,0,1,2.3-3,6.28,6.28,0,0,1,4.17-1.35h.28Z"/><path class="cls-45" d="M4311.93,728.75a8.28,8.28,0,0,0-1.35-5.08,5.06,5.06,0,0,0-7.71,0,10.25,10.25,0,0,0,0,10.17,5,5,0,0,0,7.71,0A8.31,8.31,0,0,0,4311.93,728.75Zm-5.19,11.69c-3.74,0-6.54-1.15-8.39-3.43a13.66,13.66,0,0,1,0-16.49q2.77-3.48,8.39-3.48c3.76,0,6.57,1.16,8.41,3.48a13.66,13.66,0,0,1,0,16.49C4313.31,739.29,4310.5,740.44,4306.74,740.44Z"/><path class="cls-45" d="M4332.26,709.84v4.67c-.33,0-.86-.07-1.62-.09a1.64,1.64,0,0,0-2,1.68V718h3.75v4h-3.75v17.68H4323V722h-3.18v-4h3.12v-1.41c0-2.35.4-4,1.18-4.85q1.24-2,6-2c.36,0,.68,0,1,0Z"/><path class="cls-45" d="M4135.3,771.71a6.2,6.2,0,0,0,1.09,3q1.53,1.83,5.16,1.83a10.92,10.92,0,0,0,3.56-.48,3.44,3.44,0,0,0,2.58-3.44,2.52,2.52,0,0,0-1.29-2.27,13.24,13.24,0,0,0-4-1.39l-3.13-.7a19.84,19.84,0,0,1-6.37-2.28c-2-1.37-3-3.5-3-6.41a8.55,8.55,0,0,1,2.89-6.62c1.92-1.76,4.74-2.64,8.48-2.64a12.9,12.9,0,0,1,8,2.49,8.87,8.87,0,0,1,3.45,7.21h-5.93a4.25,4.25,0,0,0-2.33-3.8,7.76,7.76,0,0,0-3.59-.75,6.64,6.64,0,0,0-3.81,1,3.06,3.06,0,0,0-1.42,2.69,2.58,2.58,0,0,0,1.4,2.38,17.09,17.09,0,0,0,3.85,1.22l5.09,1.23a13.19,13.19,0,0,1,5.06,2.15,7.29,7.29,0,0,1,2.64,6.06,8.53,8.53,0,0,1-3.09,6.75c-2.07,1.79-5,2.68-8.75,2.68s-6.88-.88-9.09-2.64a8.81,8.81,0,0,1-3.31-7.28Z"/><path class="cls-45" d="M4163.63,756.33h-5.79V751h5.79Zm-5.79,2.61h5.79v21.93h-5.79Z"/><path class="cls-45" d="M4183.32,769.8a7.32,7.32,0,0,0-1.32-4.74,4.25,4.25,0,0,0-3.51-1.63,4.14,4.14,0,0,0-4.15,2.83,10,10,0,0,0-.6,3.73,8.61,8.61,0,0,0,.64,3.39,4.17,4.17,0,0,0,4.17,2.78,4.44,4.44,0,0,0,3.39-1.52Q4183.32,773.13,4183.32,769.8ZM4180,758.92a6.88,6.88,0,0,1,3.37,3.18v-3.16h5.56v20.8a11.69,11.69,0,0,1-1.43,6.4q-2.44,3.69-9.39,3.7a12.75,12.75,0,0,1-6.83-1.65,6,6,0,0,1-2.92-4.93h6.21a2.67,2.67,0,0,0,.78,1.45,4.87,4.87,0,0,0,3.11.78q3.09,0,4.13-2.07a10.56,10.56,0,0,0,.68-4.46v-1.41a7,7,0,0,1-1.76,2.11,7.12,7.12,0,0,1-4.44,1.31,8.36,8.36,0,0,1-6.72-3,12,12,0,0,1-2.52-8,13.56,13.56,0,0,1,2.43-8.21,8,8,0,0,1,6.87-3.33A7.59,7.59,0,0,1,4180,758.92Z"/><path class="cls-45" d="M4214.06,766.1v14.77h-5.86V767.53a6,6,0,0,0-.46-2.65,3.24,3.24,0,0,0-3.21-1.69,4,4,0,0,0-4,2.47A8.62,8.62,0,0,0,4200,769v11.87h-5.69V759h5.51v3.2a9.52,9.52,0,0,1,2.09-2.43,7.19,7.19,0,0,1,4.47-1.33,8.39,8.39,0,0,1,5.54,1.78C4213.34,761.39,4214.06,763.35,4214.06,766.1Z"/><path class="cls-45" d="M4225.21,756.33h-5.8V751h5.8Zm-5.8,2.61h5.8v21.93h-5.8Z"/><path class="cls-45" d="M4244.66,751h5.58v5.23h-5.58Zm0,8h5.69v21.83h-5.69Zm-3.53-8v4.66l-.79,0h-.91c-.9,0-1.45.25-1.66.75a6.59,6.59,0,0,0-.26,2.33v.4h3.75v4.05h-3.75v17.68h-5.68V763.19h-3.2v-4.05h3.14v-1.41a7.6,7.6,0,0,1,1.54-5.21c.92-1.07,2.79-1.6,5.63-1.6.34,0,.7,0,1.06,0Z"/><path class="cls-45" d="M4268.88,766.81a5.32,5.32,0,0,0-.82-2.22,3.48,3.48,0,0,0-3-1.32,4,4,0,0,0-4,2.87,12.22,12.22,0,0,0-.56,4.07,11.18,11.18,0,0,0,.56,3.88,3.82,3.82,0,0,0,3.85,2.73,3.4,3.4,0,0,0,2.85-1.08,5.36,5.36,0,0,0,1-2.82h5.82a9.52,9.52,0,0,1-1.87,5c-1.8,2.51-4.45,3.76-8,3.76s-6.09-1-7.75-3.14a12.75,12.75,0,0,1-2.49-8.14c0-3.77.91-6.7,2.75-8.79a9.56,9.56,0,0,1,7.58-3.14,11.46,11.46,0,0,1,6.73,1.85q2.61,1.85,3.09,6.54Z"/><path class="cls-45" d="M4290.7,770.21a6.19,6.19,0,0,1-1.09.55,8.94,8.94,0,0,1-1.51.39l-1.28.24a8.31,8.31,0,0,0-2.58.79,2.61,2.61,0,0,0-1.33,2.43,2.56,2.56,0,0,0,.81,2.12,3.05,3.05,0,0,0,2,.66,5.85,5.85,0,0,0,3.4-1.09c1-.72,1.57-2,1.6-4Zm-3.46-2.68a8.85,8.85,0,0,0,2.27-.5,1.73,1.73,0,0,0,1.22-1.63,1.92,1.92,0,0,0-.94-1.86,5.74,5.74,0,0,0-2.73-.52,3.54,3.54,0,0,0-2.86,1,4.3,4.3,0,0,0-.81,2h-5.52a8.56,8.56,0,0,1,1.61-4.72c1.51-1.94,4.1-2.9,7.79-2.9a13.7,13.7,0,0,1,6.37,1.43c1.85.95,2.79,2.75,2.79,5.39V775.3c0,.69,0,1.54,0,2.53a3.2,3.2,0,0,0,.33,1.53,2,2,0,0,0,.85.66v.85h-6.21a5.72,5.72,0,0,1-.36-1.25,11.15,11.15,0,0,1-.17-1.33,11.67,11.67,0,0,1-2.72,2.2,8.19,8.19,0,0,1-4.17,1.06,7.15,7.15,0,0,1-4.9-1.7,6,6,0,0,1-1.94-4.82,6.28,6.28,0,0,1,3.1-5.85,13.77,13.77,0,0,1,5-1.41Z"/><path class="cls-45" d="M4321.31,766.1v14.77h-5.85V767.53a6.18,6.18,0,0,0-.46-2.65,3.24,3.24,0,0,0-3.21-1.69,4,4,0,0,0-4,2.47,8.42,8.42,0,0,0-.57,3.34v11.87h-5.7V759h5.52v3.2a9.33,9.33,0,0,1,2.09-2.43,7.17,7.17,0,0,1,4.47-1.33,8.38,8.38,0,0,1,5.54,1.78C4320.59,761.39,4321.31,763.35,4321.31,766.1Z"/><path class="cls-45" d="M4324.34,763.23v-4.09h3V753H4333v6.11h3.54v4.09H4333v11.58a2.68,2.68,0,0,0,.33,1.68,3.8,3.8,0,0,0,2.09.33h.56a5.12,5.12,0,0,0,.56,0v4.29l-2.69.1q-4.06.14-5.55-1.41a4.22,4.22,0,0,1-1-3V763.23Z"/><path class="cls-42" d="M1164.67,643a35,35,0,0,0-35-35.08H306.1a55.93,55.93,0,0,0-55.84,56v751a14.55,14.55,0,0,0,27.57,6.55c15.24-30.46,81.88-347.15,96.29-375.93a82.18,82.18,0,0,1,73.48-45.47H1119a45.75,45.75,0,0,0,45.69-45.85Z"/><path class="cls-46" d="M414.88,769.26V743.84q15.58-.8,21.82-2.37a29.89,29.89,0,0,0,16.16-10q4.29-5.12,6.47-13.63a34.91,34.91,0,0,0,1.27-7.6H488v190H454.25v-131Z"/><path class="cls-46" d="M596.17,874.89q11,0,17.27-9.38t6.29-24.3q0-16.65-7.16-25.49T595,806.87a21.7,21.7,0,0,0-14.9,5.77q-9.71,8.52-9.7,27.52,0,15.33,7.28,25T596.17,874.89Zm20.55-116.77A20.75,20.75,0,0,0,613.61,748q-5.31-8.92-16.05-8.91-16,0-22.86,20.44-3.71,11.27-5.09,33.28a37.8,37.8,0,0,1,14.21-12.05,43,43,0,0,1,18.47-3.8q22.29,0,36.55,17.17t14.26,43.9q0,26.61-14,46.92t-43.42,20.31q-31.65,0-46.65-30-11.67-23.46-11.66-60.54A314.11,314.11,0,0,1,539,779.35q2.9-24.24,11.2-40.37A62.14,62.14,0,0,1,569,716.84q11.6-8.4,27.77-8.39,23.32,0,37.18,13.56t15.59,36.11Z"/><path class="cls-46" d="M726.08,874.62q11.32,0,17.73-7.73t6.41-21.75q0-14.55-6.53-22.08t-17.61-7.54q-11.08,0-17.61,7.54T702,845.14q0,14,6.41,21.75T726.08,874.62Zm-33.14-75.48q-12.12-9.18-15.76-19.86a62,62,0,0,1-3.64-20q0-20.7,13.74-35.32t38.8-14.61q25.06,0,38.8,14.61t13.75,35.32a62.07,62.07,0,0,1-3.65,20q-3.63,10.68-15.75,18.55a49.86,49.86,0,0,1,18.58,20.83,65.88,65.88,0,0,1,6.24,29q0,24-15.64,40.82T724.7,905.29q-28.07,0-42.5-16.84t-14.43-40.82a64.6,64.6,0,0,1,6.41-29A43,43,0,0,1,692.94,799.14ZM726.08,787q10,0,15.54-6.55t5.48-16.91q0-11.26-5.48-17.62t-15.54-6.36q-9.93,0-15.53,6.36T705,763.49q0,10.35,5.6,16.91T726.08,787Z"/><path class="cls-46" d="M858.19,874.62q14.65,0,19.23-17.36T882,807.13q0-34.33-4.56-50.85t-19.23-16.51q-14.67,0-19.4,16.51t-4.73,50.85q0,32.77,4.73,50.13T858.19,874.62Zm57.74-67.49q0,47.05-12.88,72.47T858.19,905q-32,0-44.86-25.43t-12.88-72.47q0-47,12.88-72.6T858.19,709q32,0,44.86,25.56T915.93,807.13Z"/><path class="cls-46" d="M989.71,874.62q14.67,0,19.23-17.36t4.56-50.13q0-34.33-4.56-50.85t-19.23-16.51q-14.65,0-19.4,16.51t-4.73,50.85q0,32.77,4.73,50.13T989.71,874.62Zm57.75-67.49q0,47.05-12.89,72.47T989.71,905q-32,0-44.86-25.43T932,807.13q0-47,12.87-72.6T989.71,709q32,0,44.86,25.56T1047.46,807.13Z"/><path class="cls-44" d="M1429.11,638.57a28.38,28.38,0,0,0-28.32-28.42H1229.73a28.39,28.39,0,0,0-28.32,28.42V973.72a28.39,28.39,0,0,0,28.32,28.41h171.06a28.38,28.38,0,0,0,28.32-28.41Z"/><path class="cls-45" d="M1294.8,877.43c1.06,5.8,3.09,10.31,6.08,13.49s7.36,4.69,13.09,4.69c6.62,0,11.65-2.29,15.11-7s5.19-10.52,5.19-17.59-1.62-12.81-4.86-17.6-8.29-7.17-15.15-7.17a26.11,26.11,0,0,0-8.42,1.22,16.73,16.73,0,0,0-9.45,8.35l-23.94-1.13,9.54-75.16h74.73v22.71h-55.47L1296.39,832a56.05,56.05,0,0,1,9.63-5.35,40.94,40.94,0,0,1,14.13-2.15,42.34,42.34,0,0,1,29.37,11.35q12.54,11.35,12.53,33A52,52,0,0,1,1350,902.57q-12.08,14.86-36.11,14.84-19.35,0-31.8-10.45t-13.84-29.53Z"/><path class="cls-45" d="M1220.64,649.23h6l10.83,19v-19h5.31v27.3h-5.7l-11.11-19.4v19.4h-5.3Z"/><path class="cls-45" d="M1252.86,656.34v12.17a6.43,6.43,0,0,0,.4,2.59,2.84,2.84,0,0,0,2.83,1.54,3.69,3.69,0,0,0,3.69-2.19,7.82,7.82,0,0,0,.52-3.13v-11h5.33v20.19h-5.11v-2.86l-.37.56a3.65,3.65,0,0,1-.7.81,7,7,0,0,1-2.4,1.52,8.05,8.05,0,0,1-2.69.41c-3,0-5-1.07-6-3.22a12.55,12.55,0,0,1-.86-5.24V656.34Z"/><path class="cls-45" d="M1298.16,658.23a5.64,5.64,0,0,1,1.15,2.59,17.11,17.11,0,0,1,.19,3l0,12.73h-5.4V663.67a4.22,4.22,0,0,0-.37-1.89,2.6,2.6,0,0,0-2.58-1.4,3,3,0,0,0-3,1.81,5.57,5.57,0,0,0-.43,2.31v12h-5.3v-12a6.73,6.73,0,0,0-.37-2.61,2.58,2.58,0,0,0-2.6-1.46,3.14,3.14,0,0,0-3,1.46,5.94,5.94,0,0,0-.41,2.49v12.15h-5.34V656.37h5.12v3a8.14,8.14,0,0,1,1.84-2.24,7.27,7.27,0,0,1,7.7-.17,5.91,5.91,0,0,1,1.73,2.43,6.65,6.65,0,0,1,2.57-2.61,7.78,7.78,0,0,1,3.62-.84,7.11,7.11,0,0,1,2.62.52A5.84,5.84,0,0,1,1298.16,658.23Z"/><path class="cls-45" d="M1323.66,666.17a13,13,0,0,1-2.21,7.8,8,8,0,0,1-10.2,2.09,7.89,7.89,0,0,1-2-2.07v2.54h-5.16V649.26h5.25V659a7.67,7.67,0,0,1,2.19-2.15,6.54,6.54,0,0,1,3.63-.93,7.45,7.45,0,0,1,6.21,2.87A11.68,11.68,0,0,1,1323.66,666.17Zm-5.52.56a10,10,0,0,0-.55-3.56,3.86,3.86,0,0,0-3.88-2.67,3.92,3.92,0,0,0-3.93,2.62,9.76,9.76,0,0,0-.56,3.59,7.59,7.59,0,0,0,1.15,4.3,3.92,3.92,0,0,0,3.48,1.7,3.63,3.63,0,0,0,3.17-1.65A7.62,7.62,0,0,0,1318.14,666.73Z"/><path class="cls-45" d="M1331.27,664.41h8.18a4.6,4.6,0,0,0-1.27-3.17,3.87,3.87,0,0,0-2.81-1.09,3.61,3.61,0,0,0-2.84,1.15A5.66,5.66,0,0,0,1331.27,664.41Zm12-4.68a10.47,10.47,0,0,1,1.53,4.16,26.19,26.19,0,0,1,.15,4h-13.76c.07,2,.71,3.44,1.9,4.25a4.43,4.43,0,0,0,2.62.76,3.74,3.74,0,0,0,2.64-.92,4.45,4.45,0,0,0,1-1.39h5.38a6.81,6.81,0,0,1-1.87,3.65,9.15,9.15,0,0,1-7.24,2.94,10.18,10.18,0,0,1-6.77-2.48c-2-1.65-2.93-4.35-2.93-8.07,0-3.5.87-6.18,2.64-8a9,9,0,0,1,6.88-2.8,10.43,10.43,0,0,1,4.51.94A8,8,0,0,1,1343.22,659.73Z"/><path class="cls-45" d="M1360.09,655.89v5.41c-.33,0-.63-.06-.89-.07s-.47,0-.62,0c-2.12,0-3.55.69-4.27,2.07a8.21,8.21,0,0,0-.61,3.6v9.65h-5.3V656.34h5v3.52a11.52,11.52,0,0,1,2.12-2.76,5.77,5.77,0,0,1,3.84-1.24h.26Z"/><path class="cls-45" d="M1387.49,666.47a7.6,7.6,0,0,0-1.24-4.68,4.66,4.66,0,0,0-7.1,0,9.45,9.45,0,0,0,0,9.36,4.64,4.64,0,0,0,7.1,0A7.62,7.62,0,0,0,1387.49,666.47Zm-4.77,10.76q-5.17,0-7.73-3.16a12.57,12.57,0,0,1,0-15.18q2.55-3.2,7.73-3.2c3.46,0,6,1.07,7.73,3.2a12.53,12.53,0,0,1,0,15.18C1388.77,676.18,1386.18,677.23,1382.72,677.23Z"/><path class="cls-45" d="M1406.21,649.06v4.3c-.3,0-.8-.07-1.49-.09a1.76,1.76,0,0,0-1.45.46,1.71,1.71,0,0,0-.39,1.09v1.7h3.45v3.72h-3.45v16.29h-5.24V660.24h-2.93v-3.72h2.87v-1.29c0-2.17.37-3.65,1.09-4.47.76-1.21,2.61-1.81,5.53-1.81.33,0,.62,0,.89,0Z"/><path class="cls-45" d="M1224.86,706a5.56,5.56,0,0,0,1,2.8c.93,1.12,2.52,1.68,4.75,1.68a10.16,10.16,0,0,0,3.27-.44,3.17,3.17,0,0,0,2.38-3.17,2.33,2.33,0,0,0-1.18-2.09,12.57,12.57,0,0,0-3.71-1.28l-2.89-.65a18.37,18.37,0,0,1-5.87-2.09q-2.74-1.89-2.74-5.91a7.9,7.9,0,0,1,2.66-6.09q2.65-2.43,7.81-2.43a11.87,11.87,0,0,1,7.34,2.29,8.15,8.15,0,0,1,3.17,6.64h-5.45a3.94,3.94,0,0,0-2.15-3.5,7.13,7.13,0,0,0-3.3-.69,6.16,6.16,0,0,0-3.51.89,2.84,2.84,0,0,0-1.31,2.48,2.37,2.37,0,0,0,1.29,2.19,15.57,15.57,0,0,0,3.54,1.13l4.69,1.13a12,12,0,0,1,4.66,2,6.68,6.68,0,0,1,2.43,5.57,7.86,7.86,0,0,1-2.85,6.22q-2.85,2.47-8.05,2.47t-8.37-2.43a8.13,8.13,0,0,1-3-6.7Z"/><path class="cls-45" d="M1250.93,691.86h-5.33V687h5.33Zm-5.33,2.41h5.33v20.19h-5.33Z"/><path class="cls-45" d="M1269.07,704.27a6.75,6.75,0,0,0-1.22-4.37,3.91,3.91,0,0,0-3.23-1.5,3.81,3.81,0,0,0-3.82,2.61,9.09,9.09,0,0,0-.56,3.43,7.94,7.94,0,0,0,.6,3.13,3.84,3.84,0,0,0,3.84,2.55,4.06,4.06,0,0,0,3.11-1.39A6.46,6.46,0,0,0,1269.07,704.27Zm-3.07-10a6.36,6.36,0,0,1,3.11,2.93v-2.91h5.11v19.15a10.69,10.69,0,0,1-1.31,5.89q-2.25,3.41-8.65,3.41a11.7,11.7,0,0,1-6.28-1.52,5.6,5.6,0,0,1-2.7-4.54H1261a2.38,2.38,0,0,0,.72,1.33,4.41,4.41,0,0,0,2.86.73c1.9,0,3.17-.64,3.81-1.91a9.85,9.85,0,0,0,.62-4.11v-1.3a5.84,5.84,0,0,1-5.71,3.15,7.72,7.72,0,0,1-6.19-2.73,11.09,11.09,0,0,1-2.31-7.4,12.52,12.52,0,0,1,2.23-7.57,7.38,7.38,0,0,1,6.33-3.06A6.88,6.88,0,0,1,1266,694.25Z"/><path class="cls-45" d="M1297.37,700.86v13.6H1292V702.18a5.71,5.71,0,0,0-.42-2.45,3,3,0,0,0-3-1.55,3.66,3.66,0,0,0-3.67,2.28,7.89,7.89,0,0,0-.52,3.07v10.93h-5.24V694.31h5.07v2.94a9.08,9.08,0,0,1,1.93-2.24,6.66,6.66,0,0,1,4.11-1.22,7.69,7.69,0,0,1,5.1,1.64Q1297.38,697.07,1297.37,700.86Z"/><path class="cls-45" d="M1307.64,691.86h-5.34V687h5.34Zm-5.34,2.41h5.34v20.19h-5.34Z"/><path class="cls-45" d="M1325.55,687h5.14v4.82h-5.14Zm0,7.37h5.23v20.1h-5.23ZM1322.3,687v4.3l-.73,0h-.84c-.83,0-1.34.23-1.52.69a5.89,5.89,0,0,0-.24,2.14v.37h3.45v3.73H1319v16.28h-5.24V698.18h-2.94v-3.73h2.89v-1.29a7,7,0,0,1,1.41-4.8q1.28-1.49,5.19-1.48c.32,0,.65,0,1,0Z"/><path class="cls-45" d="M1347.85,701.51a4.85,4.85,0,0,0-.76-2,3.18,3.18,0,0,0-2.75-1.22,3.63,3.63,0,0,0-3.64,2.65,11.24,11.24,0,0,0-.52,3.74,10.39,10.39,0,0,0,.52,3.58,3.5,3.5,0,0,0,3.54,2.51,3.13,3.13,0,0,0,2.63-1,4.84,4.84,0,0,0,.94-2.59h5.37a8.84,8.84,0,0,1-1.73,4.56,8.44,8.44,0,0,1-7.34,3.46q-4.84,0-7.13-2.89a11.67,11.67,0,0,1-2.3-7.5q0-5.21,2.53-8.09a8.8,8.8,0,0,1,7-2.89,10.55,10.55,0,0,1,6.19,1.7c1.6,1.14,2.55,3.14,2.84,6Z"/><path class="cls-45" d="M1368,704.64a6,6,0,0,1-1,.51,8,8,0,0,1-1.39.36l-1.18.22a7.54,7.54,0,0,0-2.38.73,2.42,2.42,0,0,0-1.22,2.24,2.35,2.35,0,0,0,.75,1.95,2.81,2.81,0,0,0,1.82.6,5.35,5.35,0,0,0,3.13-1c1-.66,1.44-1.88,1.48-3.65Zm-3.19-2.46a8.86,8.86,0,0,0,2.09-.46,1.61,1.61,0,0,0,1.12-1.51,1.78,1.78,0,0,0-.86-1.71,5.4,5.4,0,0,0-2.52-.47,3.28,3.28,0,0,0-2.64.93,4,4,0,0,0-.74,1.85h-5.08a7.89,7.89,0,0,1,1.48-4.36q2.09-2.66,7.17-2.66a12.78,12.78,0,0,1,5.87,1.31c1.7.88,2.57,2.53,2.57,5v9.26c0,.64,0,1.42,0,2.33a3,3,0,0,0,.31,1.41,2,2,0,0,0,.78.61v.78h-5.72a5.19,5.19,0,0,1-.33-1.15,12.15,12.15,0,0,1-.16-1.22,10.92,10.92,0,0,1-2.5,2,7.56,7.56,0,0,1-3.84,1,6.54,6.54,0,0,1-4.51-1.57,5.54,5.54,0,0,1-1.79-4.43,5.77,5.77,0,0,1,2.86-5.39,12.64,12.64,0,0,1,4.62-1.3Z"/><path class="cls-45" d="M1396.13,700.86v13.6h-5.39V702.18a5.55,5.55,0,0,0-.43-2.45,3,3,0,0,0-3-1.55,3.67,3.67,0,0,0-3.68,2.28,7.89,7.89,0,0,0-.52,3.07v10.93h-5.24V694.31H1383v2.94a8.68,8.68,0,0,1,1.92-2.24,6.67,6.67,0,0,1,4.12-1.22,7.69,7.69,0,0,1,5.1,1.64C1395.46,696.52,1396.13,698.33,1396.13,700.86Z"/><path class="cls-45" d="M1398.91,698.21v-3.76h2.81v-5.63h5.21v5.63h3.26v3.76h-3.26v10.67a2.5,2.5,0,0,0,.3,1.55,3.55,3.55,0,0,0,1.93.3h.51l.52,0v3.94l-2.48.1q-3.75.12-5.11-1.3a3.89,3.89,0,0,1-.88-2.8V698.21Z"/><path class="cls-42" d="M3715.37,91.53a27.06,27.06,0,0,0-27-27.1H3086.93a43.2,43.2,0,0,0-43.13,43.26V472a11.24,11.24,0,0,0,21.29,5.06l37.35-74.62a63.48,63.48,0,0,1,56.75-35.12h520.89a35.34,35.34,0,0,0,35.29-35.41Z"/><path class="cls-46" d="M3182,260.12q6.22-14.76,29.2-31.23,19.95-14.34,25.89-20.54c6-6.45,9-13.5,9-21.16,0-6.25-1.75-11.43-5.19-15.57s-8.37-6.2-14.8-6.2c-8.82,0-14.79,3.29-18,9.87-1.82,3.79-2.86,9.83-3.25,18.1h-28.09q.78-18.81,6.81-30.41,11.58-22.08,41.08-22.08c15.57,0,27.9,4.32,37.12,13s13.75,20.09,13.75,34.32a46.59,46.59,0,0,1-9.73,29.1c-4.22,5.62-11.23,11.9-21,18.81l-11.55,8.24c-7.27,5.16-12.2,8.89-14.86,11.19a32.85,32.85,0,0,0-6.75,8h64.18v25.53H3175.15A71.05,71.05,0,0,1,3182,260.12Z"/><path class="cls-46" d="M3341.41,269.18c8.56,0,14.14-4.5,16.87-13.49s4-21.95,4-38.9q0-26.65-4-39.47c-2.73-8.54-8.31-12.82-16.87-12.82s-14.28,4.28-17.07,12.82-4.15,21.7-4.15,39.47q0,25.43,4.15,38.9C3327.13,264.68,3332.78,269.18,3341.41,269.18Zm50.68-52.39q0,36.51-11.29,56.25t-39.39,19.73c-18.76,0-31.86-6.58-39.46-19.73s-11.29-31.91-11.29-56.25,3.77-43.13,11.29-56.36,20.7-19.83,39.46-19.83,31.8,6.61,39.39,19.83S3392.09,192.44,3392.09,216.79Z"/><path class="cls-46" d="M3459.38,269.18c8.63,0,14.21-4.5,16.87-13.49s4-21.95,4-38.9c0-17.77-1.3-30.92-4-39.47s-8.24-12.82-16.87-12.82-14.27,4.28-17,12.82-4.15,21.7-4.15,39.47q0,25.43,4.15,38.9C3445.11,264.68,3450.82,269.18,3459.38,269.18Zm50.75-52.39c0,24.34-3.83,43.09-11.36,56.25s-20.64,19.73-39.39,19.73S3427.52,286.19,3420,273s-11.29-31.91-11.29-56.25,3.76-43.13,11.29-56.36,20.7-19.83,39.39-19.83,31.86,6.61,39.39,19.83S3510.13,192.44,3510.13,216.79Z"/><path class="cls-46" d="M3574.89,269.18c8.56,0,14.21-4.5,16.87-13.49s4-21.95,4-38.9q0-26.65-4-39.47c-2.66-8.54-8.31-12.82-16.87-12.82s-14.28,4.28-17.07,12.82-4.15,21.7-4.15,39.47c0,17,1.43,29.92,4.15,38.9S3566.32,269.18,3574.89,269.18Zm50.68-52.39q0,36.51-11.29,56.25c-7.53,13.15-20.7,19.73-39.39,19.73S3543,286.19,3535.5,273s-11.29-31.91-11.29-56.25,3.76-43.13,11.29-56.36,20.64-19.83,39.39-19.83,31.86,6.61,39.39,19.83S3625.57,192.44,3625.57,216.79Z"/><path class="cls-44" d="M3913.71,88.13a21.92,21.92,0,0,0-21.88-21.94H3759.72a21.92,21.92,0,0,0-21.87,21.94V347a21.92,21.92,0,0,0,21.87,21.95h132.11A21.93,21.93,0,0,0,3913.71,347Z"/><path class="cls-45" d="M3857.82,280.9h-12.19v23.28h-20.76V280.9h-42.71V262.31l39.66-65.68h23.81v67.63h12.19Zm-33-16.64V217.53l-27,46.73Z"/><path class="cls-45" d="M3752.68,96.36h4.61l8.37,14.72V96.36h4.1v21.09h-4.4l-8.58-15v15h-4.1Z"/><path class="cls-45" d="M3777.57,101.86v9.39a5,5,0,0,0,.31,2,2.17,2.17,0,0,0,2.18,1.18,2.86,2.86,0,0,0,2.86-1.68,6.26,6.26,0,0,0,.4-2.42v-8.48h4.11v15.59h-3.95v-2.2l-.28.42a3,3,0,0,1-.54.63,5.55,5.55,0,0,1-1.85,1.18,6.24,6.24,0,0,1-2.08.31c-2.31,0-3.85-.83-4.66-2.49a9.65,9.65,0,0,1-.66-4v-9.39Z"/><path class="cls-45" d="M3812.56,103.31a4.39,4.39,0,0,1,.88,2,13.14,13.14,0,0,1,.15,2.3l0,9.83h-4.17v-9.93a3.28,3.28,0,0,0-.28-1.46,2,2,0,0,0-2-1.09,2.34,2.34,0,0,0-2.32,1.41,4.35,4.35,0,0,0-.33,1.78v9.29h-4.09v-9.29a5.19,5.19,0,0,0-.29-2,2,2,0,0,0-2-1.13,2.4,2.4,0,0,0-2.34,1.13,4.51,4.51,0,0,0-.32,1.91v9.39h-4.12V101.88h3.95v2.28a6.37,6.37,0,0,1,1.42-1.73,5.61,5.61,0,0,1,6-.13,4.63,4.63,0,0,1,1.33,1.87,5.19,5.19,0,0,1,2-2,6,6,0,0,1,2.79-.65,5.56,5.56,0,0,1,2,.4A4.56,4.56,0,0,1,3812.56,103.31Z"/><path class="cls-45" d="M3832.25,109.45a10.08,10.08,0,0,1-1.71,6,6.18,6.18,0,0,1-7.87,1.62,6,6,0,0,1-1.51-1.6v2h-4V96.39h4.06v7.5a5.89,5.89,0,0,1,1.69-1.66,5,5,0,0,1,2.81-.72,5.74,5.74,0,0,1,4.79,2.22A9,9,0,0,1,3832.25,109.45Zm-4.26.43a7.7,7.7,0,0,0-.43-2.75,3,3,0,0,0-3-2.06,3,3,0,0,0-3,2,7.51,7.51,0,0,0-.43,2.78,5.92,5.92,0,0,0,.88,3.32,3.05,3.05,0,0,0,2.7,1.31,2.78,2.78,0,0,0,2.44-1.27A5.84,5.84,0,0,0,3828,109.88Z"/><path class="cls-45" d="M3838.13,108.09h6.31a3.55,3.55,0,0,0-1-2.45,3,3,0,0,0-2.18-.84,2.77,2.77,0,0,0-2.19.89A4.38,4.38,0,0,0,3838.13,108.09Zm9.22-3.62a7.89,7.89,0,0,1,1.19,3.22,20.27,20.27,0,0,1,.12,3.09H3838a3.83,3.83,0,0,0,1.47,3.29,3.42,3.42,0,0,0,2,.59,2.91,2.91,0,0,0,2-.72,3.22,3.22,0,0,0,.75-1.07h4.16a5.22,5.22,0,0,1-1.45,2.82,7.06,7.06,0,0,1-5.59,2.27,7.9,7.9,0,0,1-5.23-1.91q-2.26-1.92-2.26-6.24a8.66,8.66,0,0,1,2-6.21,7,7,0,0,1,5.31-2.16,8,8,0,0,1,3.49.73A6.09,6.09,0,0,1,3847.35,104.47Z"/><path class="cls-45" d="M3860.39,101.51v4.18l-.69-.06h-.48c-1.64,0-2.74.53-3.3,1.6a6.3,6.3,0,0,0-.47,2.77v7.46h-4.09V101.86h3.88v2.71a9,9,0,0,1,1.63-2.13,4.47,4.47,0,0,1,3-1h.2Z"/><path class="cls-45" d="M3881.55,109.68a5.88,5.88,0,0,0-1-3.61,3.22,3.22,0,0,0-2.74-1.27,3.26,3.26,0,0,0-2.75,1.27,7.35,7.35,0,0,0,0,7.23,3.26,3.26,0,0,0,2.75,1.27,3.22,3.22,0,0,0,2.74-1.27A5.93,5.93,0,0,0,3881.55,109.68Zm-3.69,8.31q-4,0-6-2.44a9.7,9.7,0,0,1,0-11.72q2-2.47,6-2.47c2.67,0,4.67.82,6,2.47a9.7,9.7,0,0,1,0,11.72C3882.53,117.18,3880.53,118,3877.86,118Z"/><path class="cls-45" d="M3896,96.23v3.32c-.23,0-.61,0-1.15-.06a1.28,1.28,0,0,0-1.11.36,1.3,1.3,0,0,0-.3.83V102h2.66v2.87h-2.66v12.58h-4.05V104.87h-2.27V102h2.22v-1a5.29,5.29,0,0,1,.84-3.45c.59-.93,2-1.4,4.27-1.4l.69,0Z"/><path class="cls-45" d="M3755.94,140.24a4.33,4.33,0,0,0,.78,2.16,4.55,4.55,0,0,0,3.67,1.3,7.59,7.59,0,0,0,2.52-.35,2.43,2.43,0,0,0,1.84-2.44,1.79,1.79,0,0,0-.92-1.62,9.84,9.84,0,0,0-2.86-1l-2.23-.5a14,14,0,0,1-4.53-1.61,5.16,5.16,0,0,1-2.12-4.57,6.1,6.1,0,0,1,2-4.7q2.06-1.87,6-1.88a9.16,9.16,0,0,1,5.66,1.77,6.34,6.34,0,0,1,2.46,5.13h-4.22a3,3,0,0,0-1.66-2.7,5.41,5.41,0,0,0-2.55-.53,4.75,4.75,0,0,0-2.71.68,2.21,2.21,0,0,0-1,1.92,1.83,1.83,0,0,0,1,1.69,11.81,11.81,0,0,0,2.73.87l3.63.87a9.29,9.29,0,0,1,3.59,1.53,5.19,5.19,0,0,1,1.88,4.31,6.08,6.08,0,0,1-2.2,4.8,9.22,9.22,0,0,1-6.22,1.91,10.1,10.1,0,0,1-6.46-1.88,6.27,6.27,0,0,1-2.36-5.17Z"/><path class="cls-45" d="M3776.08,129.29H3772v-3.76h4.11Zm-4.11,1.86h4.11v15.59H3772Z"/><path class="cls-45" d="M3790.09,138.88a5.24,5.24,0,0,0-.94-3.38,3,3,0,0,0-2.5-1.16,3,3,0,0,0-3,2,7.07,7.07,0,0,0-.43,2.65,6.09,6.09,0,0,0,.46,2.41,3,3,0,0,0,3,2,3.13,3.13,0,0,0,2.41-1.08A5,5,0,0,0,3790.09,138.88Zm-2.37-7.74a4.88,4.88,0,0,1,2.4,2.26v-2.25h4v14.79a8.34,8.34,0,0,1-1,4.55c-1.16,1.76-3.39,2.63-6.68,2.63a9.08,9.08,0,0,1-4.86-1.17,4.3,4.3,0,0,1-2.08-3.5h4.42a1.94,1.94,0,0,0,.55,1,3.46,3.46,0,0,0,2.21.55,3,3,0,0,0,2.94-1.47,7.57,7.57,0,0,0,.48-3.18v-1a4.51,4.51,0,0,1-4.4,2.44,6,6,0,0,1-4.79-2.11,8.59,8.59,0,0,1-1.78-5.72,9.64,9.64,0,0,1,1.72-5.84,5.69,5.69,0,0,1,4.89-2.37A5.31,5.31,0,0,1,3787.72,131.14Z"/><path class="cls-45" d="M3812,136.24v10.5h-4.17v-9.48a4.5,4.5,0,0,0-.32-1.89,2.32,2.32,0,0,0-2.29-1.2,2.83,2.83,0,0,0-2.83,1.76,6,6,0,0,0-.41,2.37v8.44h-4V131.18h3.92v2.27a7.12,7.12,0,0,1,1.48-1.73,5.13,5.13,0,0,1,3.18-.94,5.94,5.94,0,0,1,3.94,1.27A5.15,5.15,0,0,1,3812,136.24Z"/><path class="cls-45" d="M3819.88,129.29h-4.13v-3.76h4.13Zm-4.13,1.86h4.13v15.59h-4.13Z"/><path class="cls-45" d="M3833.71,125.53h4v3.72h-4Zm0,5.69h4v15.52h-4Zm-2.51-5.69v3.32l-.56,0H3830c-.64,0-1,.18-1.18.53a4.5,4.5,0,0,0-.18,1.66v.29h2.66v2.87h-2.66v12.57h-4.05V134.17h-2.27V131.3h2.23v-1a5.38,5.38,0,0,1,1.09-3.7c.66-.76,2-1.15,4-1.15l.76,0Z"/><path class="cls-45" d="M3850.93,136.75a3.59,3.59,0,0,0-.58-1.58,2.46,2.46,0,0,0-2.13-.94,2.8,2.8,0,0,0-2.81,2,8.77,8.77,0,0,0-.4,2.89,8,8,0,0,0,.4,2.76,2.71,2.71,0,0,0,2.74,2,2.42,2.42,0,0,0,2-.77,3.84,3.84,0,0,0,.73-2h4.15a6.76,6.76,0,0,1-1.34,3.52,6.49,6.49,0,0,1-5.66,2.68c-2.5,0-4.34-.75-5.51-2.23a10.65,10.65,0,0,1,.18-12.05,6.78,6.78,0,0,1,5.39-2.23,8.08,8.08,0,0,1,4.78,1.32q1.86,1.31,2.2,4.65Z"/><path class="cls-45" d="M3866.45,139.16a3.77,3.77,0,0,1-.77.4,6,6,0,0,1-1.08.27l-.91.18a6,6,0,0,0-1.84.55,1.87,1.87,0,0,0-.94,1.73,1.84,1.84,0,0,0,.58,1.51,2.17,2.17,0,0,0,1.4.47,4.17,4.17,0,0,0,2.42-.77,3.28,3.28,0,0,0,1.14-2.82Zm-2.46-1.9a6.27,6.27,0,0,0,1.62-.36,1.23,1.23,0,0,0,.86-1.16,1.37,1.37,0,0,0-.66-1.32,4.18,4.18,0,0,0-1.95-.36,2.5,2.5,0,0,0-2,.71,3,3,0,0,0-.58,1.43h-3.92a6.08,6.08,0,0,1,1.14-3.36c1.08-1.37,2.92-2.06,5.54-2.06a9.75,9.75,0,0,1,4.53,1c1.32.67,2,1.95,2,3.83v7.15q0,.75,0,1.8a2.33,2.33,0,0,0,.24,1.09,1.52,1.52,0,0,0,.6.47v.6H3867a4.23,4.23,0,0,1-.25-.88,7.66,7.66,0,0,1-.12-1,8.36,8.36,0,0,1-1.93,1.56,5.81,5.81,0,0,1-3,.76,5.08,5.08,0,0,1-3.49-1.21,4.3,4.3,0,0,1-1.37-3.42,4.46,4.46,0,0,1,2.2-4.17,10,10,0,0,1,3.57-1Z"/><path class="cls-45" d="M3888.22,136.24v10.5h-4.16v-9.48a4.33,4.33,0,0,0-.33-1.89,2.31,2.31,0,0,0-2.28-1.2,2.83,2.83,0,0,0-2.84,1.76,6,6,0,0,0-.4,2.37v8.44h-4.05V131.18h3.92v2.27a6.72,6.72,0,0,1,1.49-1.73,5.1,5.1,0,0,1,3.17-.94,6,6,0,0,1,4,1.27C3887.71,132.89,3888.22,134.29,3888.22,136.24Z"/><path class="cls-45" d="M3890.37,134.2v-2.9h2.17V127h4v4.35h2.52v2.9h-2.52v8.24c0,.64.08,1,.24,1.19a2.6,2.6,0,0,0,1.48.24h.4l.4,0v3l-1.92.07c-1.92.07-3.24-.27-3.94-1a3,3,0,0,1-.68-2.16v-9.6Z"/></g></g></svg>